<svg xmlns="http://www.w3.org/2000/svg" viewBox="0 0 40 40"><defs><style>.a{fill:#fff;}</style></defs><title>bgd-logo-white-40</title><path class="a" d="M34.14,5.86A20,20,0,1,0,5.86,34.14,20,20,0,0,0,40,20,19.85,19.85,0,0,0,34.14,5.86ZM32.35,32.34A17.47,17.47,0,1,1,7.65,7.63a17.47,17.47,0,1,1,24.7,24.71Z"/><path class="a" d="M20.16,34.47a9.75,9.75,0,0,1-5.79-1.93c-4.62-3.38-4.31-9.65-4.31-9.65s1.62,6.27,7.82,8.43h0a7,7,0,0,0,2.28.38,6.89,6.89,0,1,0,0-13.78H16.71V28.26a16.7,16.7,0,0,1-1.56-.9A10.15,10.15,0,0,1,14,26.44V17.92H11.49V15.16H14V5.51h6.2a6.21,6.21,0,0,1,4.31,10.67,9.65,9.65,0,0,1-4.31,18.29Zm0-19.31a3.45,3.45,0,1,0,0-6.89H16.71v6.89Z"/></svg>