<svg version="1.1" xmlns="http://www.w3.org/2000/svg" xmlns:xlink="http://www.w3.org/1999/xlink" x="0" y="0" viewBox="0 0 960 560" xml:space="preserve">
  <style type="text/css">
    
	.st0{fill:#3D4B5D;}
	.st1{fill:#C96420;}

  </style>
  <path class="st0" d="M586.7 65.3C558.2 36.8 520.3 21.1 480 21.1s-78.2 15.7-106.7 44.2c-28.5 28.5-44.2 66.4-44.2 106.7s15.7 78.2 44.2 106.7c28.5 28.5 66.4 44.2 106.7 44.2 40.3 0 78.2-15.7 106.7-44.2s44.2-66.4 44.2-106.7C630.9 131.6 615.2 93.8 586.7 65.3zM573.2 265.1c-24.9 24.9-58 38.6-93.2 38.6s-68.3-13.7-93.2-38.6c-24.9-24.9-38.6-58-38.6-93.2 0-35.2 13.7-68.3 38.6-93.2 24.9-24.9 58-38.6 93.2-38.6 35.2 0 68.3 13.7 93.2 38.6 24.9 24.9 38.6 58 38.6 93.2S598.1 240.2 573.2 265.1z"/>
  <path class="st1" d="M481.2 281.2c-15.8 0-30.9-5.2-43.7-14.6 -34.8-25.5-32.5-72.8-32.5-72.8s12.2 47.3 59 63.6l0 0c5.5 1.9 11.3 2.9 17.2 2.9 28.7 0 52-23.3 52-52s-23.3-52-52-52h-26v78c0 0-5.7-2.8-11.8-6.8 -5.4-3.6-9-6.9-9-6.9v-64.3h-18.6v-20.8h18.6V62.7h46.8c25.8 0 46.8 21 46.8 46.8 0 12.8-5.2 24.9-14.3 33.7 24.6 12.3 40.3 37.4 40.3 65.2C554 248.5 521.4 281.2 481.2 281.2zM481.2 135.5c14.3 0 26-11.7 26-26s-11.7-26-26-26h-26v52H481.2z"/>
  <path class="st0" d="M119.1 453c0.4-4.2 0.7-15 0.7-24.1v-40.7c0-9.3-0.1-23.5-0.5-27.5h27.4c21.7 0 29.7 11.5 29.7 22.4 0 8.6-4.7 15.1-11.2 17.9 8.5 3.1 17.1 11.2 17.1 23.7 0 15.1-11.7 28.3-34.9 28.3H119.1zM139.1 396.4h6.6c6.5 0 11.6-3.8 11.6-10.7 0-6.6-5.4-10.7-12.8-10.7h-5.4V396.4zM139.1 437.6h6.5c10.1 0 16.9-4.7 16.9-13.5 0-8.6-6.6-13.8-15.9-13.8h-7.4V437.6z"/>
  <path class="st0" d="M229.7 429.1c0 9.2 0.1 19.7 0.5 23.9h-20.5c0.3-4.2 0.5-14.7 0.5-23.9v-44.4c0-9.2-0.3-20.1-0.5-24.1h27.5c22.1 0 34.3 12.1 34.3 28.9 0 14.6-8.5 22-18.2 25.1 10.5 11.9 20.6 27.8 32.2 38.4H260c-5.9-7.3-17.7-23.9-23.3-35.3 -0.9 0.1-1.8 0.1-2.6 0.1h-4.5V429.1zM229.7 403.9h7.4c8.8 0 14.8-5.8 14.8-13.9 0-7.3-5.3-14-15.6-14h-6.6V403.9z"/>
  <path class="st0" d="M347.2 358.9c28.1 0 49.2 21.4 49.2 47.9s-21.2 47.9-49.2 47.9c-27.8 0-49.1-21.4-49.1-47.9S319.4 358.9 347.2 358.9zM347.2 438.2c16.6 0 29.7-14 29.7-31.4s-13.1-31.4-29.7-31.4 -29.4 14-29.4 31.4S330.6 438.2 347.2 438.2z"/>
  <path class="st0" d="M443.2 360.6c-0.3 3.6-0.5 14.6-0.5 24.1v31.4c0 13.5 8 21.4 18.1 21.4 10.2 0 18.2-8 18.2-21.4v-31.4c0-7.7-0.1-18.5-0.4-24.1h20.4c-0.3 5.9-0.4 16.7-0.4 24.1v30.9c0 24.3-16.3 38.8-37.8 38.8 -21.4 0-37.6-14.3-37.6-38.8v-30.9c0-9.6-0.1-20.5-0.4-24.1H443.2z"/>
  <path class="st0" d="M660.4 360.6c-3.2 5.7-5.7 10-10.2 19.1l-37.6 74.8h-1.8l-18.7-37 -18.7 37h-2.6l-39.2-75.3c-4.3-8.2-7.4-13.6-10.8-18.7h23.2c1.6 4.3 3.9 9.3 6.9 15.1l23.5 47.5 9.8-21.2 -11.6-22.7c-5-9.7-7.1-13.6-10.9-18.7h21.2c1.2 3.6 3.1 8 7.6 16.6l2.7 5.5 2.6-5.7c3.8-8.2 5.9-13.1 7.3-16.5h19c-2.7 4-5.4 9-10.4 18.7l-10.2 20.2 10.8 22.3 20.2-43c5-10 6.9-14.7 8-18.2H660.4z"/>
  <path class="st0" d="M702.6 436.8h9.8c9.3 0 19-0.1 23.1-0.4v17.1c-4-0.3-13.8-0.5-23.1-0.5h-29.9c0.3-7.4 0.5-18.1 0.5-24.1v-44.2c0-9.3-0.3-20-0.5-24h28.9c9.2 0 18.9-0.4 23.1-0.7v17.3c-4.2-0.4-13.9-0.5-23.1-0.5h-8.8v20.1h7.7c9.2 0 18.1-0.3 22.3-0.5v17.1c-4.2-0.3-13.1-0.5-22.3-0.5h-7.7V436.8z"/>
  <path class="st0" d="M785.1 429.1c0 9.2 0.1 19.7 0.5 23.9h-20.5c0.3-4.2 0.5-14.7 0.5-23.9v-44.4c0-9.2-0.3-20.1-0.5-24.1h27.5c22.1 0 34.3 12.1 34.3 28.9 0 14.6-8.5 22-18.2 25.1 10.5 11.9 20.6 27.8 32.2 38.4h-25.5c-5.9-7.3-17.7-23.9-23.3-35.3 -0.9 0.1-1.8 0.1-2.6 0.1h-4.4V429.1zM785.1 403.9h7.4c8.8 0 14.8-5.8 14.8-13.9 0-7.3-5.3-14-15.6-14h-6.6V403.9z"/>
  <path class="st1" d="M205.2 535.8c-4.1 1.3-7 2.3-12.6 2.3 -14.6 0-24.8-10.7-24.8-23.9 0-13.1 10.1-23.9 24.7-23.9 4.9 0 8.2 0.9 11.9 2.2v6.3c-3.3-2.8-7.1-3.7-11.7-3.7 -11.3 0-19.3 8.5-19.3 19.1 0 10.7 8.2 19.2 19.2 19.2 3 0 5.8-0.4 7.3-1.3v-7.6c0-4.7-0.1-6.5-0.3-8.5h5.8c-0.1 2-0.3 3.9-0.3 8.5V535.8z"/>
  <path class="st1" d="M230.3 525.6c0 4.6 0.1 9.6 0.3 11.7h-6c0.2-2.1 0.3-7.1 0.3-11.7v-22.5c0-4.6-0.1-10-0.3-12.1h9.6c10.2 0 15.8 5.7 15.8 13.5 0 7.2-4.5 11-9.1 12.5 4.9 6.1 10.7 15.2 16 20.2h-7.5c-3.8-4.9-9.4-12.5-13.3-19.3 -0.8 0.1-1.5 0.1-2.2 0.1h-3.6V525.6zM230.3 514.1h4.4c5.7 0 9.8-3.8 9.8-9.4 0-4.8-3.4-9.2-10.5-9.2h-3.7V514.1z"/>
  <path class="st1" d="M306 537.3c-0.7-2-1.8-4.6-3-7.6l-3.4-8H282l-3.3 7.9c-1.5 3.6-2.4 5.9-3 7.8h-6.2c1.6-2.9 3.3-6.5 4.9-10.2l15.9-36.8h1.6l16.1 36.8c1.7 3.8 3.5 7.5 5.1 10.2H306zM290.7 500.1l-6.9 17h13.9L290.7 500.1z"/>
  <path class="st1" d="M333.4 525.2c0 4.6 0.1 10 0.3 12.1h-5.9c0.1-2.1 0.2-7.5 0.2-12.1v-23.4c0-4.6-0.1-8.7-0.2-10.7h10.3c9.6 0 15.2 6 15.2 14 0 8-6.2 14-15.3 14h-4.5V525.2zM333.4 515h4.1c6.1 0 10.2-4.9 10.2-9.9 0-5.2-3.7-9.7-10.2-9.7h-4V515z"/>
  <path class="st1" d="M369.2 537.3c0.1-1.9 0.2-6.2 0.2-9.8v-24.3c0-4.8-0.1-10.2-0.2-12.1h5.9c-0.1 1.8-0.3 7.3-0.3 12.1v7H400v-7c0-3.8 0-9.2-0.2-12.1h5.9c-0.1 3-0.3 8.4-0.3 12.1v24.4c0 3.5 0.1 7.8 0.3 9.7h-5.9c0.1-1.9 0.2-6.2 0.2-9.8v-12.8h-25.2v12.9c0 3.5 0.1 7.8 0.3 9.7H369.2z"/>
  <path class="st1" d="M431.5 525.2c0 4.6 0.1 10 0.3 12.1h-6c0.1-2.1 0.3-7.5 0.3-12.1v-22c0-4.6-0.1-10-0.3-12.1h6c-0.1 2-0.3 7.5-0.3 12.1V525.2z"/>
  <path class="st1" d="M486.6 535.8c-4 1.2-7.5 2.2-12.6 2.2 -14 0-24.7-10.7-24.7-23.9 0-13.2 10.7-23.9 24.7-23.9 5.5 0 8.6 1.3 12.1 2.1v6.5c-3.2-2.6-7.2-3.6-11.8-3.6 -10.8 0-19.4 8.5-19.4 19 0 10.5 8.6 19.1 19.5 19.1 4.9 0 9.2-1.1 12.2-3.8V535.8z"/>
  <path class="st1" d="M528.6 537.3c0.2-2.1 0.3-7.5 0.3-12.1v-22c0-4.6-0.1-10-0.3-12.1h13c12.7 0 23.2 10.3 23.2 23.1 0 12.7-10.5 23.1-23.2 23.1H528.6zM534.4 532.8h6.9c10 0 17.9-8.5 17.9-18.6 0-10.1-8-18.5-18-18.5h-6.8V532.8z"/>
  <path class="st1" d="M587.9 532.7h5.9c4.7 0 9.4-0.1 11.4-0.2v5c-2-0.1-6.7-0.2-11.4-0.2h-11.7c0.1-3.7 0.3-9 0.3-12.1v-22.1c0-4.7-0.1-10-0.3-12h11.1c4.7 0 9.3-0.1 11.4-0.3v5.1c-2.1-0.2-6.7-0.3-11.4-0.3h-5.4v14.7h5.3c4.6 0 8.4-0.1 10.5-0.2v5c-2.1-0.1-5.9-0.2-10.5-0.2h-5.3V532.7z"/>
  <path class="st1" d="M645.2 525.2c0 7.8-5.7 13.1-14 13.1 -4.4 0-7-1.1-10.5-1.7v-7.7c1.7 2.8 6.1 5 10.7 5 5 0 8-3.4 8-8.1 0-10-17.2-9.9-17.2-23.3 0-7.9 5.6-12.4 13.4-12.4 3.5 0 5.7 0.9 8.5 1.3v7.3c-1.2-3-4.6-4.3-8.5-4.3 -4.5 0-7.8 2.7-7.8 7.5C627.8 511.6 645.2 511.8 645.2 525.2z"/>
  <path class="st1" d="M669.1 525.2c0 4.6 0.1 10 0.3 12.1h-6c0.1-2.1 0.3-7.5 0.3-12.1v-22c0-4.6-0.1-10-0.3-12.1h6c-0.1 2-0.3 7.5-0.3 12.1V525.2z"/>
  <path class="st1" d="M724.2 535.8c-4.1 1.3-7 2.3-12.6 2.3 -14.6 0-24.8-10.7-24.8-23.9 0-13.1 10.1-23.9 24.7-23.9 4.9 0 8.2 0.9 11.9 2.2v6.3c-3.3-2.8-7.1-3.7-11.7-3.7 -11.3 0-19.3 8.5-19.3 19.1 0 10.7 8.2 19.2 19.2 19.2 3 0 5.8-0.4 7.3-1.3v-7.6c0-4.7-0.1-6.5-0.3-8.5h5.8c-0.1 2-0.3 3.9-0.3 8.5V535.8z"/>
  <path class="st1" d="M743.6 537.3c0.1-1.9 0.3-6.2 0.3-9.8v-24.4c0-4-0.1-9.4-0.3-13h1.3c2 2.5 3.2 3.8 5.5 6.4l24.9 29.7v-23c0-3.8-0.1-9.2-0.2-12.1h5.7c-0.1 3-0.2 8.4-0.2 12.1v25.2c0 2.8 0 5.9 0.2 9.8h-1.2c-1.7-2.2-2.8-3.5-5-6l-25.4-30.2 -0.1 25.7c0 3.5 0.1 7.8 0.3 9.7H743.6z"/>
</svg>
