<?xml version="1.0" encoding="utf-8"?>
<!-- Generator: Adobe Illustrator 21.0.2, SVG Export Plug-In . SVG Version: 6.00 Build 0)  -->
<svg version="1.1" id="Layer_1" xmlns="http://www.w3.org/2000/svg" xmlns:xlink="http://www.w3.org/1999/xlink" x="0px" y="0px"
	 viewBox="0 0 823.8 150" style="enable-background:new 0 0 823.8 150;" xml:space="preserve">
<style type="text/css">
	.st0{fill:#C00000;}
	.st1{fill:#FFFFFF;}
</style>
<g>
	<circle class="st0" cx="75" cy="75" r="75"/>
	<g>
		<path d="M189.7,105.5h11.1V37.2h-11.1v-1.4h57.2v17.3h-1.1c-0.9-2.6-1.8-4.9-2.8-6.9c-1-2-2.2-3.6-3.6-5c-1.4-1.4-3.1-2.4-5-3
			c-1.9-0.7-4.3-1-7-1h-16.6v32.4h6.5c2.2,0,4.1-0.2,5.6-0.6c1.5-0.4,2.8-1.1,3.9-2.2s2-2.6,2.8-4.5c0.8-1.9,1.5-4.4,2.2-7.4h1.1V86
			h-1.1c-0.5-1.9-1-3.8-1.5-5.6c-0.5-1.8-1.2-3.4-2.1-4.8c-0.9-1.4-2.1-2.5-3.6-3.3c-1.5-0.8-3.4-1.2-5.8-1.2h-8.1v34.6h11.1v1.4
			h-32.2V105.5z"/>
		<path d="M258,82.2c0,0.7,0,1.3-0.1,2c0,0.7,0,1.6,0,2.7c0,2.2,0.1,4.5,0.4,6.9c0.3,2.4,0.9,4.6,1.8,6.5c0.9,1.9,2.2,3.5,4,4.8
			c1.8,1.3,4.1,1.9,7.1,1.9c2.9,0,5.3-0.4,7.2-1.3c1.9-0.9,3.4-1.9,4.5-3.2c1.1-1.2,1.9-2.5,2.4-3.8c0.5-1.3,0.9-2.3,1.2-3.1L288,96
			c-0.2,0.7-0.6,1.8-1.1,3.2c-0.6,1.4-1.5,2.7-2.7,4.1c-1.2,1.4-2.9,2.6-5,3.6c-2.1,1-4.8,1.6-8.1,1.6c-3.3,0-6.4-0.5-9.2-1.6
			c-2.8-1.1-5.3-2.6-7.4-4.6c-2.1-2-3.7-4.4-4.8-7.2c-1.1-2.8-1.7-5.8-1.7-9.2c0-2.9,0.6-5.8,1.8-8.5c1.2-2.8,2.8-5.2,4.8-7.4
			c2-2.1,4.4-3.9,7.2-5.1c2.7-1.3,5.7-2,8.8-2c1.9,0,3.9,0.3,6,1c2.1,0.7,4.1,1.8,6,3.2c1.8,1.5,3.4,3.5,4.6,6
			c1.2,2.5,1.9,5.5,1.9,9.2H258z M278.6,80.7c0.1-0.9,0.2-1.8,0.2-2.6s0-1.6,0-2.5c0-2.3-0.2-4.1-0.6-5.6c-0.4-1.5-1-2.6-1.8-3.5
			c-0.8-0.9-1.7-1.5-2.8-1.9c-1.1-0.4-2.3-0.5-3.5-0.5c-2.3,0-4.1,0.4-5.6,1.3c-1.5,0.9-2.6,2.1-3.5,3.7c-0.9,1.5-1.5,3.3-2,5.3
			c-0.4,2-0.7,4.1-0.8,6.3H278.6z"/>
		<path d="M341.2,105.9c-0.9,0.7-1.9,1.2-3.1,1.8c-1.2,0.5-2.7,0.8-4.4,0.8c-3.2,0-5.5-0.7-6.9-2.1c-1.4-1.4-2.4-3.3-3-5.8h-0.2
			c-0.3,0.6-0.6,1.4-1.1,2.2c-0.5,0.9-1.2,1.8-2.1,2.6c-1,0.8-2.2,1.5-3.9,2.1s-3.6,0.9-6.1,0.9c-2.8,0-5-0.3-6.7-1
			c-1.7-0.6-3-1.4-3.9-2.4c-0.9-0.9-1.5-2-1.9-3.1c-0.3-1.2-0.4-2.2-0.4-3.2c0-2.3,0.5-4.2,1.4-5.6c0.9-1.4,2.1-2.5,3.6-3.3
			c1.5-0.8,3.2-1.5,5-2c1.8-0.5,3.7-1.1,5.6-1.7c2.2-0.7,4-1.4,5.4-1.9c1.4-0.5,2.6-1.2,3.4-1.9c0.8-0.8,1.4-1.7,1.6-2.9
			c0.3-1.2,0.5-2.8,0.5-4.8c0-1.6-0.1-3-0.3-4.3c-0.2-1.3-0.6-2.4-1.1-3.2c-0.5-0.9-1.3-1.6-2.3-2.1c-1-0.5-2.3-0.7-4-0.7
			c-2.2,0-4,0.4-5.4,1.1c-1.4,0.8-2.2,2-2.2,3.8c0,1.1,0.1,2.2,0.3,3.4c0.2,1.1,0.3,1.9,0.3,2.4c0,0.9-0.3,1.7-1,2.4
			c-0.7,0.6-1.6,1-2.9,1c-2.2,0-3.6-0.4-4.1-1.2c-0.5-0.8-0.8-1.8-0.8-3.1c0-1.5,0.3-2.9,1-4.2c0.7-1.3,1.6-2.5,2.9-3.6
			c1.3-1,2.9-1.9,4.9-2.4c2-0.6,4.2-0.9,6.8-0.9c3.1,0,5.6,0.4,7.7,1.2c2.1,0.8,3.7,1.8,5,3.1c1.3,1.3,2.2,2.8,2.7,4.4
			c0.5,1.6,0.8,3.3,0.8,5.1v24.9c0,1.9,0.3,3.2,0.9,3.9c0.6,0.7,1.5,1,2.6,1c0.7,0,1.5-0.1,2.3-0.4c0.8-0.3,1.6-0.7,2.3-1.2
			L341.2,105.9z M323.7,82.5h-0.2c-0.1,0.9-1.2,1.7-3.3,2.6l-7.5,3c-2.1,0.9-3.8,2.1-4.9,3.7c-1.1,1.6-1.7,3.5-1.7,5.8
			c0,1,0.1,2,0.3,3.1c0.2,1.1,0.6,2,1.1,2.8c0.5,0.8,1.3,1.5,2.2,2c1,0.5,2.2,0.8,3.8,0.8c2.2,0,4-0.5,5.4-1.4
			c1.4-0.9,2.4-2.1,3.1-3.5c0.7-1.4,1.2-2.9,1.4-4.5c0.2-1.6,0.3-3.1,0.3-4.5V82.5z"/>
		<path d="M343.2,64.1h7.7V51.2c0.5,0.2,1,0.4,1.5,0.5c0.5,0.1,1.3,0.2,2.4,0.2c1,0,1.9-0.1,2.6-0.4c0.7-0.2,1.4-0.6,2.1-1.1v13.7
			h14.2v1.4h-14.2v32.7c0,1.9,0.2,3.4,0.5,4.5c0.4,1.2,0.9,2.1,1.5,2.7c0.6,0.6,1.2,1,2,1.2c0.7,0.2,1.4,0.3,2,0.3
			c2.3,0,4.2-0.8,5.6-2.5c1.4-1.7,2.4-3.7,2.8-5.9l1.4,0.5c-0.2,0.9-0.5,1.8-0.9,2.9c-0.4,1.1-1,2.1-1.9,3c-0.8,1-1.9,1.8-3.2,2.4
			c-1.3,0.6-3,1-5,1c-5,0-8.5-1-10.4-2.9c-2-1.9-3-4.7-3-8.2V65.5h-7.7V64.1z"/>
		<path d="M431.7,107h-16.1V96.9h-0.2c-0.6,1.3-1.3,2.7-2.1,4c-0.8,1.4-1.9,2.6-3.1,3.7c-1.2,1.1-2.7,2-4.3,2.7
			c-1.6,0.7-3.5,1.1-5.8,1.1c-2.7,0-4.8-0.3-6.5-0.9c-1.7-0.6-3-1.2-3.9-1.9c-0.5-0.3-1-0.8-1.5-1.2c-0.6-0.5-1.1-1.2-1.6-2
			c-0.5-0.9-0.9-2-1.2-3.3c-0.3-1.4-0.5-3-0.5-5V65.5h-7.7v-1.4h16.3v30.7c0,1.7,0.1,3.3,0.3,4.8c0.2,1.5,0.7,2.8,1.4,3.9
			c0.7,1.1,1.5,2,2.6,2.6c1.1,0.6,2.5,1,4.2,1c1.5,0,3-0.4,4.5-1.3c1.6-0.9,3-2.1,4.3-3.7c1.3-1.6,2.4-3.5,3.2-5.8
			c0.9-2.2,1.3-4.8,1.3-7.5V65.5h-7.6v-1.4H424v41.5h7.7V107z"/>
		<path d="M436.8,105.5h7.7V65.5h-7.7v-1.4h16.1v10.1h0.2c0.3-1,0.7-2.1,1.3-3.4c0.6-1.3,1.4-2.5,2.5-3.6c1.1-1.2,2.4-2.1,3.9-2.9
			c1.5-0.8,3.3-1.2,5.5-1.2c1.5,0,2.9,0.2,4,0.8c1.1,0.5,2.1,1.1,2.8,1.9c0.7,0.8,1.3,1.6,1.6,2.6c0.3,1,0.5,2,0.5,3
			c0,2.2-0.5,3.7-1.5,4.4c-1,0.7-2.2,1.1-3.5,1.1c-2.9,0-4.4-0.9-4.4-2.8c0-0.6,0.1-1.1,0.2-1.5c0.1-0.4,0.3-0.7,0.5-1.1
			c0.2-0.4,0.3-0.8,0.5-1.2c0.1-0.5,0.2-1.1,0.2-2c0-2.1-1.2-3.2-3.5-3.2c-1.1,0-2.2,0.4-3.4,1.2c-1.2,0.8-2.3,2-3.4,3.5
			c-1,1.5-1.9,3.4-2.6,5.5c-0.7,2.2-1,4.7-1,7.5v22.9h8.7v1.4h-25V105.5z"/>
		<path d="M489.4,82.2c0,0.7,0,1.3-0.1,2c0,0.7,0,1.6,0,2.7c0,2.2,0.1,4.5,0.4,6.9c0.3,2.4,0.9,4.6,1.8,6.5c0.9,1.9,2.2,3.5,4,4.8
			c1.8,1.3,4.1,1.9,7.1,1.9c2.9,0,5.3-0.4,7.2-1.3c1.9-0.9,3.4-1.9,4.5-3.2c1.1-1.2,1.9-2.5,2.4-3.8c0.5-1.3,0.9-2.3,1.2-3.1
			l1.5,0.3c-0.2,0.7-0.6,1.8-1.1,3.2c-0.6,1.4-1.5,2.7-2.7,4.1c-1.2,1.4-2.9,2.6-5,3.6c-2.1,1-4.8,1.6-8.1,1.6
			c-3.3,0-6.4-0.5-9.2-1.6c-2.8-1.1-5.3-2.6-7.4-4.6c-2.1-2-3.7-4.4-4.8-7.2c-1.1-2.8-1.7-5.8-1.7-9.2c0-2.9,0.6-5.8,1.8-8.5
			c1.2-2.8,2.8-5.2,4.8-7.4c2-2.1,4.4-3.9,7.2-5.1c2.7-1.3,5.7-2,8.8-2c1.9,0,3.9,0.3,6,1c2.1,0.7,4.1,1.8,6,3.2
			c1.8,1.5,3.4,3.5,4.6,6c1.2,2.5,1.9,5.5,1.9,9.2H489.4z M510,80.7c0.1-0.9,0.2-1.8,0.2-2.6s0-1.6,0-2.5c0-2.3-0.2-4.1-0.6-5.6
			c-0.4-1.5-1-2.6-1.8-3.5c-0.8-0.9-1.7-1.5-2.8-1.9c-1.1-0.4-2.3-0.5-3.5-0.5c-2.3,0-4.1,0.4-5.6,1.3c-1.5,0.9-2.6,2.1-3.5,3.7
			c-0.9,1.5-1.5,3.3-2,5.3c-0.4,2-0.7,4.1-0.8,6.3H510z"/>
		<path d="M555.9,105.5H567V37.2h-11.1v-1.4h32.2v1.4H577v68.4h11.1v1.4h-32.2V105.5z"/>
		<path d="M593.4,105.5h7.7V65.5h-7.7v-1.4h16.1v10.5h0.2c1.4-4,3.4-6.9,6.1-8.8c2.6-1.9,5.8-2.8,9.5-2.8c3.3,0,6.3,0.7,8.8,2.2
			c2.6,1.5,4.2,3.9,5,7.3h0.2c0.5-1.2,1.1-2.4,1.9-3.5c0.8-1.1,1.8-2.1,3-3c1.2-0.9,2.6-1.6,4.2-2.2c1.6-0.5,3.5-0.8,5.5-0.8
			c9.7,0,14.6,5,14.6,14.9v27.7h7.7v1.4h-24v-1.4h7.7v-34c0-2.3-0.6-4-1.8-5.3c-1.2-1.3-2.9-1.9-5.1-1.9c-1.7,0-3.3,0.3-5,1
			c-1.7,0.6-3.2,1.6-4.5,2.9c-1.3,1.3-2.4,2.9-3.2,4.9c-0.8,2-1.2,4.3-1.2,7v25.5h7.7v1.4h-24v-1.4h7.7V73c0-2.9-0.6-5.1-1.8-6.5
			s-2.8-2.1-4.8-2.1c-1.4,0-2.9,0.4-4.6,1.1c-1.7,0.7-3.2,1.8-4.6,3.3c-1.4,1.5-2.6,3.5-3.6,5.9c-1,2.4-1.5,5.3-1.5,8.8v22.2h7.7
			v1.4h-24V105.5z"/>
		<path d="M726.2,105.9c-0.9,0.7-1.9,1.2-3.1,1.8c-1.2,0.5-2.7,0.8-4.4,0.8c-3.2,0-5.5-0.7-7-2.1c-1.4-1.4-2.4-3.3-3-5.8h-0.2
			c-0.3,0.6-0.6,1.4-1.1,2.2c-0.5,0.9-1.2,1.8-2.1,2.6c-1,0.8-2.2,1.5-3.9,2.1c-1.6,0.6-3.6,0.9-6.1,0.9c-2.8,0-5-0.3-6.7-1
			c-1.7-0.6-3-1.4-3.9-2.4c-0.9-0.9-1.5-2-1.8-3.1c-0.3-1.2-0.5-2.2-0.5-3.2c0-2.3,0.5-4.2,1.4-5.6c0.9-1.4,2.1-2.5,3.6-3.3
			c1.5-0.8,3.2-1.5,5-2c1.8-0.5,3.7-1.1,5.6-1.7c2.2-0.7,4-1.4,5.4-1.9c1.4-0.5,2.6-1.2,3.4-1.9c0.8-0.8,1.3-1.7,1.6-2.9
			c0.3-1.2,0.5-2.8,0.5-4.8c0-1.6-0.1-3-0.3-4.3c-0.2-1.3-0.6-2.4-1.1-3.2c-0.5-0.9-1.3-1.6-2.3-2.1c-1-0.5-2.3-0.7-4-0.7
			c-2.2,0-4,0.4-5.4,1.1c-1.4,0.8-2.2,2-2.2,3.8c0,1.1,0.1,2.2,0.3,3.4c0.2,1.1,0.3,1.9,0.3,2.4c0,0.9-0.3,1.7-1,2.4
			c-0.7,0.6-1.6,1-2.9,1c-2.2,0-3.6-0.4-4.1-1.2c-0.5-0.8-0.8-1.8-0.8-3.1c0-1.5,0.3-2.9,1-4.2c0.7-1.3,1.7-2.5,3-3.6
			c1.3-1,2.9-1.9,4.9-2.4c2-0.6,4.2-0.9,6.8-0.9c3.1,0,5.6,0.4,7.7,1.2c2.1,0.8,3.7,1.8,5,3.1c1.3,1.3,2.2,2.8,2.7,4.4
			c0.5,1.6,0.8,3.3,0.8,5.1v24.9c0,1.9,0.3,3.2,0.9,3.9c0.6,0.7,1.5,1,2.6,1c0.7,0,1.5-0.1,2.3-0.4c0.8-0.3,1.6-0.7,2.3-1.2
			L726.2,105.9z M708.7,82.5h-0.2c-0.1,0.9-1.2,1.7-3.3,2.6l-7.5,3c-2.1,0.9-3.8,2.1-4.9,3.7c-1.1,1.6-1.7,3.5-1.7,5.8
			c0,1,0.1,2,0.3,3.1c0.2,1.1,0.6,2,1.1,2.8c0.5,0.8,1.3,1.5,2.2,2c1,0.5,2.2,0.8,3.8,0.8c2.2,0,4-0.5,5.4-1.4
			c1.4-0.9,2.4-2.1,3.1-3.5s1.2-2.9,1.4-4.5c0.2-1.6,0.3-3.1,0.3-4.5V82.5z"/>
		<path d="M730.9,100.5c0-1.8,0.3-3.3,1-4.7c0.7-1.3,1.5-2.4,2.5-3.4c1-1,2-1.8,3.1-2.4c1.1-0.6,2.1-1.1,2.9-1.5
			c-3.9-2.7-5.8-6.3-5.8-10.8c0-2.3,0.6-4.4,1.7-6.3c1.1-1.9,2.6-3.5,4.3-4.8c1.7-1.3,3.7-2.3,5.8-3c2.1-0.7,4.1-1,6-1
			c3,0,5.6,0.6,7.8,1.8c2.2,1.2,3.8,2.3,4.8,3.3c0.7-1.3,1.8-2.4,3.2-3.5c1.4-1.1,3.2-1.6,5.4-1.6c1.3,0,2.6,0.3,3.7,0.9
			c1.1,0.6,1.7,1.8,1.7,3.6c0,1.2-0.4,2.1-1.1,2.7c-0.8,0.6-1.5,0.9-2.4,0.9c-0.9,0-1.6-0.3-2-0.8c-0.4-0.5-0.8-1.1-1-1.7
			s-0.6-1.2-1-1.7c-0.3-0.5-0.8-0.8-1.5-0.8c-0.7,0-1.3,0.3-2,0.9c-0.7,0.6-1.3,1.2-1.8,2c0.6,0.7,1.4,1.8,2.3,3.4
			c0.9,1.6,1.4,3.6,1.4,6c0,2-0.5,3.8-1.5,5.5c-1,1.7-2.3,3.1-4,4.4c-1.6,1.3-3.5,2.2-5.7,3c-2.2,0.7-4.4,1-6.7,1
			c-2.3,0-4.4-0.3-6.1-1c-1.7-0.6-3.1-1.2-4-1.6c-0.7,0.3-1.5,0.7-2.3,1.1c-0.8,0.4-1.6,0.9-2.3,1.5c-0.7,0.6-1.3,1.3-1.8,2.2
			c-0.5,0.8-0.7,1.8-0.7,2.8c0,1,0.2,1.8,0.6,2.5c0.4,0.7,0.9,1.2,1.5,1.5c0.6,0.3,1.4,0.6,2.2,0.7c0.8,0.1,1.6,0.2,2.5,0.2h15.8
			c4.7,0,8.4,1.1,11.2,3.3c2.8,2.2,4.1,5.8,4.1,10.5c0,2.9-0.6,5.6-1.9,8c-1.3,2.4-3,4.5-5.1,6.3c-2.1,1.8-4.5,3.1-7.2,4.1
			c-2.7,1-5.5,1.4-8.4,1.4c-2.6,0-5-0.3-7.2-0.9c-2.2-0.6-4-1.4-5.6-2.5c-1.6-1-2.9-2.3-3.8-3.8c-0.9-1.5-1.4-3.1-1.4-4.9
			c0-1.7,0.4-3.3,1-4.8c0.7-1.4,1.6-2.7,2.7-3.8c1.1-1.1,2.4-2,3.8-2.8c1.4-0.8,2.8-1.5,4.2-2V110c-4.4,0-7.7-0.7-9.8-2.2
			C731.9,106.4,730.9,103.9,730.9,100.5z M745.9,110c-0.9,0.5-1.8,1.1-2.6,1.7c-0.9,0.6-1.7,1.3-2.4,2.1c-0.7,0.9-1.3,1.9-1.7,3
			c-0.4,1.2-0.6,2.6-0.6,4.4c0,2.4,0.4,4.4,1.2,6c0.8,1.6,1.9,2.8,3.2,3.8c1.3,1,2.8,1.6,4.3,2s3.2,0.6,4.7,0.6
			c2.4,0,4.6-0.4,6.5-1.1c2-0.7,3.7-1.7,5.1-3c1.4-1.2,2.5-2.6,3.3-4.3c0.8-1.6,1.1-3.3,1.1-5c0-3.7-1-6.4-3-8
			c-2-1.6-4.8-2.3-8.3-2.3H745.9z M762.1,77.5c0-1.5-0.1-3.1-0.3-4.6c-0.2-1.6-0.6-3-1.2-4.3c-0.6-1.3-1.6-2.3-2.9-3.1
			c-1.3-0.8-3-1.2-5.2-1.2c-3.4,0-6,1-7.7,3.1c-1.7,2.1-2.6,5.5-2.6,10.2c0,2,0.2,3.8,0.5,5.4c0.3,1.6,0.8,3,1.7,4.1
			c0.8,1.2,1.9,2,3.2,2.7c1.3,0.6,3,0.9,5.1,0.9c3.5,0,5.9-1.1,7.4-3.2C761.3,85.1,762.1,81.9,762.1,77.5z"/>
		<path d="M793,82.2c0,0.7,0,1.3-0.1,2c0,0.7,0,1.6,0,2.7c0,2.2,0.1,4.5,0.4,6.9c0.3,2.4,0.8,4.6,1.8,6.5c0.9,1.9,2.2,3.5,4,4.8
			c1.8,1.3,4.1,1.9,7,1.9c2.9,0,5.3-0.4,7.2-1.3c1.9-0.9,3.4-1.9,4.5-3.2c1.1-1.2,1.9-2.5,2.5-3.8c0.5-1.3,0.9-2.3,1.2-3.1L823,96
			c-0.2,0.7-0.6,1.8-1.2,3.2c-0.6,1.4-1.5,2.7-2.7,4.1c-1.2,1.4-2.9,2.6-5,3.6c-2.1,1-4.8,1.6-8.1,1.6c-3.3,0-6.4-0.5-9.2-1.6
			c-2.8-1.1-5.3-2.6-7.4-4.6c-2.1-2-3.7-4.4-4.8-7.2c-1.1-2.8-1.7-5.8-1.7-9.2c0-2.9,0.6-5.8,1.8-8.5c1.2-2.8,2.8-5.2,4.8-7.4
			c2-2.1,4.4-3.9,7.2-5.1c2.7-1.3,5.7-2,8.8-2c1.9,0,3.9,0.3,6,1c2.1,0.7,4.1,1.8,6,3.2c1.8,1.5,3.4,3.5,4.6,6
			c1.2,2.5,1.9,5.5,1.9,9.2H793z M813.6,80.7c0.1-0.9,0.2-1.8,0.2-2.6s0-1.6,0-2.5c0-2.3-0.2-4.1-0.7-5.6c-0.4-1.5-1-2.6-1.8-3.5
			c-0.8-0.9-1.7-1.5-2.8-1.9c-1.1-0.4-2.3-0.5-3.5-0.5c-2.3,0-4.1,0.4-5.6,1.3c-1.5,0.9-2.6,2.1-3.5,3.7c-0.9,1.5-1.5,3.3-2,5.3
			s-0.7,4.1-0.8,6.3H813.6z"/>
	</g>
	<g>
		<path class="st1" d="M94,55c0.6,0,0.8,0.4,0.6,1l-0.5,2.6c-0.1,0.6-0.3,0.8-1.1,0.8H83c-2.2,7.8-6.6,25-10.8,36.6
			c-5.5,15.1-13.5,28.1-25.2,28.1c-5.2,0-8.4-2.6-8.4-6.2c0-2.6,1.8-4.8,4.6-4.8c3.2,0,4.8,2.6,5,5.2c0.2,1,0.8,1.6,2,1.6
			c4.6,0,9.4-8.4,14.2-26.7l9-33.8h-8.6c-0.6,0-0.8-0.4-0.7-1l0.5-2.4c0.2-0.6,0.4-1,1.2-1h8.4c3-7.9,4.6-14.7,11.4-22.1
			c2.6-3,8.8-7,15.2-7c7.4,0,10.6,3.6,10.6,6.6c0,2.8-2.2,4.8-4.6,4.8c-3.8,0-5-2-5.4-4.6c-0.2-1-1-2.9-3.6-2.9
			c-7.8,0-11,14.5-14,25.2H94z"/>
	</g>
</g>
</svg>
