<svg xmlns="http://www.w3.org/2000/svg" viewBox="0 0 294.4 245.71"><defs><style>.a{fill:none;stroke:#c96420;stroke-miterlimit:10;stroke-width:8.41px;}.b{fill:#c96420;}.c{fill:#fff;}</style></defs><title>logo-unique</title><path class="a" d="M290.2,53.85H243.69a118.59,118.59,0,0,0-193,0H4.21v138h46.5a118.59,118.59,0,0,0,193,0H290.2Z"/><path class="b" d="M72.67,215.09a118.38,118.38,0,0,0,149.07,0Z"/><path class="c" d="M43.7,88.53v59.24c0,5.49,2.41,7.46,6.25,7.46s6.25-2,6.25-7.46V88.53H67.62V147c0,12.29-6.14,19.31-18,19.31s-18-7-18-19.31V88.53Z"/><path class="c" d="M86.59,109.7v55.62H75.73V88.53H90.87l12.4,46v-46H114v76.8h-12.4Z"/><path class="c" d="M122.68,88.53h12.07v76.8H122.68Z"/><path class="c" d="M142.54,107c0-12.29,6.47-19.31,18.32-19.31s18.32,7,18.32,19.31V146.9a22.6,22.6,0,0,1-2.3,10.75c.55,1.43,1.43,1.65,3.4,1.65h1.1V170h-1.65c-5.38,0-8.78-2-10.42-5.27a24.76,24.76,0,0,1-8.45,1.43c-11.85,0-18.32-7-18.32-19.31Zm12.07,40.7c0,5.49,2.41,7.57,6.25,7.57s6.25-2.08,6.25-7.57V106.19c0-5.49-2.41-7.57-6.25-7.57s-6.25,2.08-6.25,7.57Z"/><path class="c" d="M198.49,88.53v59.24c0,5.49,2.41,7.46,6.25,7.46s6.25-2,6.25-7.46V88.53h11.41V147c0,12.29-6.14,19.31-18,19.31s-18-7-18-19.31V88.53Z"/><path class="c" d="M242.7,120.9h16.57v11H242.7v22.49h20.85v11H230.63V88.53h32.91v11H242.7Z"/><polygon class="b" points="169.71 38.9 163.35 48.53 157.77 40.69 154.52 45.63 146.01 29.23 132.91 56.46 124.51 44.65 106.34 72.18 193.4 72.18 169.71 38.9"/><polygon class="c" points="103.91 42.9 105.15 46.66 109.11 46.68 105.92 49.02 107.13 52.79 103.91 50.48 100.7 52.79 101.91 49.02 98.71 46.68 102.67 46.66 103.91 42.9"/><polygon class="c" points="123.35 22 125.01 27.02 130.29 27.04 126.03 30.16 127.64 35.19 123.35 32.1 119.07 35.19 120.68 30.16 116.42 27.04 121.7 27.02 123.35 22"/><polygon class="c" points="163 25.47 163.98 28.43 167.1 28.45 164.58 30.29 165.54 33.27 163 31.44 160.47 33.27 161.42 30.29 158.9 28.45 162.03 28.43 163 25.47"/><polygon class="c" points="191.39 40.51 192.42 43.63 195.69 43.64 193.05 45.58 194.05 48.7 191.39 46.78 188.73 48.7 189.73 45.58 187.09 43.64 190.36 43.63 191.39 40.51"/><polygon class="c" points="143.56 17.51 144.27 19.65 146.52 19.66 144.71 20.99 145.39 23.13 143.56 21.82 141.74 23.13 142.42 20.99 140.61 19.66 142.86 19.65 143.56 17.51"/><line class="a" x1="59.52" y1="70.17" x2="234.88" y2="70.17"/><line class="a" x1="59.52" y1="177.87" x2="234.88" y2="177.87"/><path class="c" d="M76.63,201.9l.55,0c.28,0,.48-.13.48-.47v-7.76l-1,0v-1.42h4.77c2.45,0,4,1.17,4,3.4,0,2.54-1.8,3.8-4.32,3.8H79.7v2.42l1.6,0v1.42H76.63Zm4.27-4.15c1.45,0,2.44-.5,2.44-2,0-1.72-1-2-2.62-2h-1v4Z"/><path class="c" d="M86.46,201.9l.55,0c.28,0,.48-.13.48-.47v-7.76l-1,0v-1.42H91.1c2.45,0,4,.8,4,3.07a3.07,3.07,0,0,1-2,2.94,1.61,1.61,0,0,1,1,1l1.2,2.62,1,0v1.42H92.08V201.9l.48,0c.38-.05.47-.2.32-.53l-.78-1.67c-.23-.52-.47-.77-1.05-.77H89.53v2.9l1.08,0v1.42H86.46ZM91,197.3c1.42,0,2.05-.65,2.05-1.83,0-1.5-.87-1.68-2.29-1.68H89.53v3.52Z"/><path class="c" d="M96.93,203.25V201.9l.55,0c.28,0,.48-.13.48-.47v-7.76l-1,0v-1.42h7.64v2.77L103,195v-.67c0-.32,0-.52-.48-.52H100v2.85h3.85v1.7H100v3.12h2.69c.43,0,.47-.2.47-.53v-.83l1.7.12v3Z"/><path class="c" d="M112.49,199.7h0l2.85-7.54h3.3v1.35l-.55,0c-.3,0-.5.13-.48.58l.42,7.64,1,0v1.42h-4V201.9l.6,0c.27,0,.45-.12.43-.43l-.32-5.89h0l-2.57,6.65H111.6l-2.54-6.59h0l-.33,6.19,1.08,0v1.42h-3.94V201.9l.6,0a.44.44,0,0,0,.42-.45l.45-7.75-1-.07v-1.42h3.35Z"/><path class="c" d="M121,193.63l-1,0v-1.42h4v1.35l-.55,0c-.28,0-.48.13-.48.53v7.69l1,0v1.42h-4V201.9l.55,0c.32,0,.48-.13.48-.55Z"/><path class="c" d="M127.89,199.65c0,1.63.85,2.12,2.19,2.12a1.9,1.9,0,0,0,2.17-2v-6.1l-1,0v-1.42h4v1.35l-.55,0c-.3,0-.48.17-.48.5v6c0,2.18-1.65,3.45-4.19,3.45-2.73,0-4.14-1.1-4.14-3.72v-6.12l-1,0v-1.42h4v1.35l-.55,0c-.32,0-.5.13-.5.55Z"/><path class="c" d="M142.5,199.7h0l2.85-7.54h3.3v1.35l-.55,0c-.3,0-.5.13-.48.58l.42,7.64,1,0v1.42h-4V201.9l.6,0c.27,0,.45-.12.43-.43l-.32-5.89h0l-2.57,6.65h-1.58l-2.54-6.59h0l-.33,6.19,1.08,0v1.42h-3.94V201.9l.6,0a.44.44,0,0,0,.42-.45l.45-7.75-1-.07v-1.42h3.35Z"/><path class="c" d="M159.62,203.1v0c2.2.12,2.67,1.52,4.92,1.25l-.2,1.6c-2.44.25-4-1.48-5.9-1.62a4.32,4.32,0,0,0-1.28.08l.23-1.2c-2.57-.33-4-2.13-4-5.54,0-4.27,2.69-5.77,5-5.77s4.72,1.54,4.72,5.77C163.15,200.6,161.92,202.5,159.62,203.1Zm-1.25-1.32c2.12,0,2.72-2,2.72-4,0-1.7-.45-4.1-2.75-4.1-2.13,0-2.83,2-2.83,4S156,201.79,158.37,201.79Z"/><path class="c" d="M167.18,199.65c0,1.63.85,2.12,2.18,2.12a1.9,1.9,0,0,0,2.17-2v-6.1l-1,0v-1.42h4v1.35l-.55,0c-.3,0-.48.17-.48.5v6c0,2.18-1.65,3.45-4.19,3.45-2.73,0-4.14-1.1-4.14-3.72v-6.12l-1,0v-1.42h4v1.35l-.55,0c-.32,0-.5.13-.5.55Z"/><path class="c" d="M178.14,193.61l-1.05-.1v-1.35h3.82l3.4,9.62h0l1,0v1.42H181V201.9l.63,0c.35,0,.52-.13.4-.5l-.35-1h-3.9l-.5,1.47,1,0v1.42H174.4V201.9l.55,0c.28,0,.38-.15.5-.47Zm0,5.17h3.1l-1.5-4.75h-.05Z"/><path class="c" d="M185.89,203.25V201.9l.55,0c.28,0,.48-.13.48-.47v-7.76l-1,0v-1.42h4v1.35l-.55,0c-.28,0-.48.13-.48.53v7.44h2.77c.35,0,.38-.22.38-.53v-1.17l1.7.12v3.3Z"/><path class="c" d="M195.87,193.63l-1,0v-1.42h4v1.35l-.55,0c-.28,0-.48.13-.48.53v7.69l1,0v1.42h-4V201.9l.55,0c.32,0,.48-.13.48-.55Z"/><path class="c" d="M203.06,193.81h-1.3c-.35,0-.38.23-.38.52v.78l-1.7-.12v-2.83h8.72V195l-1.7.12v-.78c0-.32,0-.52-.48-.52h-1.13v8l1.32,0v1.42h-4.7V201.9l.88,0c.32,0,.48-.13.48-.47Z"/><path class="c" d="M212.51,199l-2.83-5.39-.78,0v-1.42H213v1.35l-.5,0c-.37,0-.47.3-.28.65l1.42,2.9h.07l1.82-3.47-.83-.07v-1.42h3.58v1.35l-.5,0c-.27,0-.4.2-.57.5l-2.62,5v2.77l1.3,0v1.42h-4.7V201.9l.88,0c.32,0,.48-.13.48-.47Z"/><path class="c" d="M137.7,224.86c-.56,0-.92.31-.92,1.11v1.21h-1.67v-1.09c0-1.8.9-2.83,2.64-2.83s2.64,1,2.64,2.83c0,3.54-3.52,4.86-3.52,6.71a1.21,1.21,0,0,0,0,.24h3.35v1.61h-5.11v-1.38c0-3.31,3.51-3.86,3.51-7.11C138.62,225.13,138.26,224.86,137.7,224.86Z"/><path class="c" d="M141.33,226.08a2.69,2.69,0,1,1,5.37,0v5.85a2.69,2.69,0,1,1-5.37,0Zm1.77,6c0,.8.35,1.11.92,1.11s.92-.31.92-1.11V226c0-.8-.35-1.11-.92-1.11s-.92.31-.92,1.11Z"/><path class="c" d="M148.94,224.79a1.75,1.75,0,0,0,1.95-1.42h1.19v11.26H150.3V226h-1.37Z"/><path class="c" d="M156.75,234.77a2.53,2.53,0,0,1-2.77-2.83v-.88a2.47,2.47,0,0,1,1.09-2.35,2.34,2.34,0,0,1-1.09-2.27v-.35a2.77,2.77,0,1,1,5.53,0v.35a2.37,2.37,0,0,1-1.09,2.27,2.47,2.47,0,0,1,1.09,2.35v.88A2.53,2.53,0,0,1,156.75,234.77Zm-1-8c0,.9.42,1.19,1,1.19s1-.29,1-1.19v-.63c0-1-.43-1.29-1-1.29s-1,.27-1,1.29Zm1,6.38c.56,0,1-.27,1-1.27v-1c0-.88-.37-1.27-1-1.27s-1,.39-1,1.27v1C155.75,232.88,156.19,233.16,156.75,233.16Z"/><rect class="c" x="125.31" y="226.87" width="4.4" height="4.4" transform="translate(-124.62 157.22) rotate(-44.99)"/><rect class="c" x="120.39" y="227.9" width="2.36" height="2.36" transform="translate(-126.36 152.99) rotate(-44.99)"/><rect class="c" x="164.11" y="226.88" width="4.4" height="4.4" transform="translate(-113.28 184.77) rotate(-45.02)"/><rect class="c" x="171.08" y="227.9" width="2.36" height="2.36" transform="translate(-111.55 189.03) rotate(-45.03)"/></svg>