<svg xmlns="http://www.w3.org/2000/svg" viewBox="0 0 286.9 192.76"><defs><style>.a,.d,.e,.f{fill:none;}.a{stroke:#fff;stroke-width:2px;}.b{fill:#c96420;}.c{fill:#3d4b5d;}.d,.e,.f{stroke:#3d4b5d;stroke-miterlimit:10;}.d{stroke-width:6.61px;}.e{stroke-width:1.32px;}.f{stroke-width:2.64px;}</style></defs><title>logo-graphic</title><path class="a" d="M50.53,63.68,42.83,99c-3.1,14.38-8.65,23.4-24.06,23.4-8.93,0-13.07-6.49-13.07-13s4-12.88,11.47-12.88c3.76,0,9.21.28,9.21,6.3a15.19,15.19,0,0,1-.56,3.76c-2.35-2-3.76-2.44-5.64-2.44-4.32,0-6.58,3.67-6.58,7.14,0,3.29,2,6.39,5.92,6.39,4.23,0,7.24-1.88,9.4-11.56l3.76-16.83a28.84,28.84,0,0,1-11.47,3.38C5.89,92.73,1,81.64,1,68.67c0-18,12.31-36.19,33.27-36.19,8.74,0,17.48,3.48,17.48,12.6,0,5-1.79,8.65-6.58,8.65-1.5,0-4.7-.38-6.49-2.44,2.35-.66,4.14-5.36,4.14-7.71,0-1.5-.47-6.67-6.49-6.67C26,36.9,15.47,54.47,15.47,69.42c0,8.37,3.1,15.51,10.9,15.51,3.48,0,6-.85,8-3.48l4-17.76Z"/><path class="a" d="M74,56l-1,4.7C76.38,58,80.14,56,84.09,56c4.23,0,6.77,2.44,6.77,6,0,3.29-2.44,7.33-7,7.33-5.26,0-2.63-6.2-5.45-6.2s-4.32,1-6.49,3L64.07,103H50.54l10-47Z"/><path class="a" d="M132.22,56l-6.77,32a17.76,17.76,0,0,0-.38,2.91c0,2.07.94,3.57,4.7,3.57s8.65-5.26,12.41-8.27h3.2C141.05,90.47,130.43,103,123.1,103c-6.11,0-10.25-2.26-11.47-7.14-2.82,3.85-7,7.71-12.78,7.71-9,0-11.66-6.39-11.66-11.94,0-16.17,5.83-35.53,24.63-35.53a10.21,10.21,0,0,1,6.3,2.35l.56-2.44ZM99.88,89.06c0,5.64,3.1,6.67,5.45,6.67,2.16,0,4.23-2.07,6-4.7a21.85,21.85,0,0,1,.56-3.1L117.18,63a7,7,0,0,0-4.61-1.69C105.52,61.33,99.88,76.28,99.88,89.06Z"/><path class="a" d="M155.62,56l-.38,1.79a14.25,14.25,0,0,1,6.58-1.69c9.78,0,14.38,3.48,14.38,13.16a43.38,43.38,0,0,1-.56,6.58c-2.91,20.21-11,27.07-20.58,27.07a16.37,16.37,0,0,1-8.83-2.82l-4.89,23-14.19,3.38L142.09,56Zm8,21a49.89,49.89,0,0,0,1.22-9.49c0-5.64-2.26-6.77-5.26-6.77a9.67,9.67,0,0,0-5.36,2l-6.77,31.58a9.46,9.46,0,0,0,6.11,1.69C158.26,95.92,160.51,91.88,163.61,76.94Z"/><path class="a" d="M216.25,87.93a13.09,13.09,0,0,0-.47,3c0,2.07,1,3.48,4.7,3.48s8.65-5.26,12.41-8.27h3.2C231.76,90.47,221.14,103,213.81,103s-11.66-3.2-11.66-10.25a22.82,22.82,0,0,1,.56-4.79L206.29,71a11.45,11.45,0,0,0,.28-2.44c0-3.38-1.79-5.55-4.32-5.55a9.49,9.49,0,0,0-5.83,2l-8.08,38H174.8l13.63-63.92,13.91-1.88L197.26,61c3.85-2.73,8.18-5,12.22-5,5.08,0,10.81,5.45,10.81,11.75A9.13,9.13,0,0,1,220.1,70Z"/><path class="a" d="M246.9,56l-6.77,32a17.65,17.65,0,0,0-.38,2.91c0,2.07.94,3.57,4.7,3.57s8.65-5.26,12.41-8.27h3.2C255.73,90.47,245.11,103,237.78,103S226,99.78,226,92.73a23.54,23.54,0,0,1,.56-4.79l6.77-32ZM242.57,36a7.54,7.54,0,0,1,7.52,7.52A7.46,7.46,0,0,1,242.57,51a7.38,7.38,0,0,1-7.43-7.43A7.46,7.46,0,0,1,242.57,36Z"/><path class="a" d="M251.41,87.56c0-13.72,5.92-31.86,24.16-31.86,5.08,0,10.34,1.32,10.34,6.49a9.58,9.58,0,0,1-.47,3.1h-5.36a10.39,10.39,0,0,0,.47-2.63c0-2.26-1.41-3.2-3.48-3.2-7.9,0-13,15.32-13,25.47,0,4.61,1,10.06,6.77,10.06,5.08,0,9.49-2.35,13.16-5.55,0,8.18-7,13.54-18.8,13.54C257.42,103,251.41,98.65,251.41,87.56Z"/><path class="a" d="M85.26,10.24V7.84a2.62,2.62,0,0,0-5.23,0v17.6a2.62,2.62,0,0,0,5.23,0V23h5.49v2.4c0,3.09-2.48,6.84-8,6.84-6,0-8.28-3.75-8.28-6.8V7.84C74.5,4.75,76.76,1,82.77,1c5.49,0,8,3.75,8,6.84v2.4Z"/><path class="a" d="M106.69,31.89,101.5,19.6H99.76V31.89h-5.4V1.39h9.1c5.23,0,7.71,3.83,7.71,8.71,0,4.53-2,7.45-4.57,8.76l5.75,13ZM99.76,15h1.74C105,15,106,14.55,106,10.1c0-2.44-.57-4.36-2.7-4.36H99.76Z"/><path class="a" d="M120.41,5.75v7.49h5.53V17.6h-5.53v9.93h8.32v4.36H115V1.39h13.16V5.75Z"/><path class="a" d="M142.36,24.79h-5.27l-1,7.1h-5.14l6.27-30.49h5.45l6.27,30.49h-5.45Zm-.87-4.4L139.84,9.45h-.13L138,20.39Z"/><path class="a" d="M163.67,5.71H158V31.89H152.6V5.71H147V1.39h16.64Z"/><path class="a" d="M172.29,31.89h-5.45V1.39h5.45Z"/><path class="a" d="M188,31.89h-5.79L175.47,1.39h5.84L185.18,24h.09l4-22.57H195Z"/><path class="a" d="M203.65,5.75v7.49h5.53V17.6h-5.53v9.93H212v4.36H198.21V1.39h13.16V5.75Z"/><path class="a" d="M97.83,153.65l.89-.08c.46-.05.79-.22.79-.76v-12.6L98,140.13v-2.3h7.43c5.18,0,8.46,2.74,8.46,8.37,0,7.1-4,9.65-8.32,9.65h-7.7Zm5-.41h2.76c3,0,4.93-2.22,4.93-6.56,0-4.88-2.36-6.23-5.28-6.23h-2.41Z"/><path class="a" d="M115.85,155.85v-2.19l.89-.08c.46-.05.79-.22.79-.76v-12.6l-1.54-.08v-2.3H128.4v4.5l-2.76.19v-1.08c0-.51-.05-.84-.79-.84h-4v4.63h6.26V148h-6.26v5.07h4.36c.71,0,.76-.33.76-.87v-1.35l2.76.19v4.82Z"/><path class="a" d="M139.6,150.81c0-1.71-1.54-2.2-3.44-2.71-2.68-.73-5.18-1.82-5.18-5.28,0-3.31,2.55-5.31,6.29-5.31a11.82,11.82,0,0,1,5.09,1.11v4.07l-2.76.19v-1.57c0-.52-.08-.73-.57-.89a6.39,6.39,0,0,0-1.76-.22c-1.6,0-2.85.65-2.85,2.33s1.57,2.14,3.6,2.76c2.47.79,5.07,1.9,5.07,5.39s-2.82,5.53-6.56,5.53a12.34,12.34,0,0,1-5.47-1.11v-4.28l2.76-.19v1.65c0,.52.08.73.57.89a6.82,6.82,0,0,0,2,.24C138.13,153.41,139.6,152.84,139.6,150.81Z"/><path class="a" d="M146.51,140.21l-1.54-.08v-2.3h6.56V140l-.89.08c-.46.05-.79.22-.79.87v12.49l1.54.08v2.3h-6.56v-2.19l.89-.08c.52-.05.79-.22.79-.89Z"/><path class="a" d="M167.57,154.44a11.17,11.17,0,0,1-6.23,1.73c-4.91,0-8-3-8-9.29,0-7,4.74-9.38,8.65-9.38a12.71,12.71,0,0,1,5.31,1.11v4.61l-2.76.19v-2.11c0-.52-.08-.73-.57-.89a7.07,7.07,0,0,0-2-.22c-3.63,0-5.23,2.44-5.23,6.48,0,4.25,1.41,6.83,4.72,6.83a6.33,6.33,0,0,0,2.87-.65v-4h0l-2.09-.08v-2.3H169v2.17l-.62.05c-.57.05-.79.24-.79.89Z"/><path class="a" d="M170.53,153.65l1-.08c.46,0,.71-.22.71-.76v-12.6l-1.54-.08v-2.3h4.88l7.67,12.44h.05V140.21l-1.79-.08v-2.3h6.61V140l-1,.08c-.41,0-.65.27-.65.84v14.9h-3.17l-7.83-12.63h-.05v10.24l1.76.08v2.3h-6.64Z"/><path class="a" d="M97.83,153.65l.89-.08c.46-.05.79-.22.79-.76v-12.6L98,140.13v-2.3h7.43c5.18,0,8.46,2.74,8.46,8.37,0,7.1-4,9.65-8.32,9.65h-7.7Zm5-.41h2.76c3,0,4.93-2.22,4.93-6.56,0-4.88-2.36-6.23-5.28-6.23h-2.41Z"/><path class="a" d="M115.85,155.85v-2.19l.89-.08c.46-.05.79-.22.79-.76v-12.6l-1.54-.08v-2.3H128.4v4.5l-2.76.19v-1.08c0-.51-.05-.84-.79-.84h-4v4.63h6.26V148h-6.26v5.07h4.36c.71,0,.76-.33.76-.87v-1.35l2.76.19v4.82Z"/><path class="a" d="M139.6,150.81c0-1.71-1.54-2.2-3.44-2.71-2.68-.73-5.18-1.82-5.18-5.28,0-3.31,2.55-5.31,6.29-5.31a11.82,11.82,0,0,1,5.09,1.11v4.07l-2.76.19v-1.57c0-.52-.08-.73-.57-.89a6.39,6.39,0,0,0-1.76-.22c-1.6,0-2.85.65-2.85,2.33s1.57,2.14,3.6,2.76c2.47.79,5.07,1.9,5.07,5.39s-2.82,5.53-6.56,5.53a12.34,12.34,0,0,1-5.47-1.11v-4.28l2.76-.19v1.65c0,.52.08.73.57.89a6.82,6.82,0,0,0,2,.24C138.13,153.41,139.6,152.84,139.6,150.81Z"/><path class="a" d="M146.51,140.21l-1.54-.08v-2.3h6.56V140l-.89.08c-.46.05-.79.22-.79.87v12.49l1.54.08v2.3h-6.56v-2.19l.89-.08c.52-.05.79-.22.79-.89Z"/><path class="a" d="M167.57,154.44a11.17,11.17,0,0,1-6.23,1.73c-4.91,0-8-3-8-9.29,0-7,4.74-9.38,8.65-9.38a12.71,12.71,0,0,1,5.31,1.11v4.61l-2.76.19v-2.11c0-.52-.08-.73-.57-.89a7.07,7.07,0,0,0-2-.22c-3.63,0-5.23,2.44-5.23,6.48,0,4.25,1.41,6.83,4.72,6.83a6.33,6.33,0,0,0,2.87-.65v-4h0l-2.09-.08v-2.3H169v2.17l-.62.05c-.57.05-.79.24-.79.89Z"/><path class="a" d="M170.53,153.65l1-.08c.46,0,.71-.22.71-.76v-12.6l-1.54-.08v-2.3h4.88l7.67,12.44h.05V140.21l-1.79-.08v-2.3h6.61V140l-1,.08c-.41,0-.65.27-.65.84v14.9h-3.17l-7.83-12.63h-.05v10.24l1.76.08v2.3h-6.64Z"/><path class="a" d="M97.83,153.65l.89-.08c.46-.05.79-.22.79-.76v-12.6L98,140.13v-2.3h7.43c5.18,0,8.46,2.74,8.46,8.37,0,7.1-4,9.65-8.32,9.65h-7.7Zm5-.41h2.76c3,0,4.93-2.22,4.93-6.56,0-4.88-2.36-6.23-5.28-6.23h-2.41Z"/><path class="a" d="M115.85,155.85v-2.19l.89-.08c.46-.05.79-.22.79-.76v-12.6l-1.54-.08v-2.3H128.4v4.5l-2.76.19v-1.08c0-.51-.05-.84-.79-.84h-4v4.63h6.26V148h-6.26v5.07h4.36c.71,0,.76-.33.76-.87v-1.35l2.76.19v4.82Z"/><path class="a" d="M139.6,150.81c0-1.71-1.54-2.2-3.44-2.71-2.68-.73-5.18-1.82-5.18-5.28,0-3.31,2.55-5.31,6.29-5.31a11.82,11.82,0,0,1,5.09,1.11v4.07l-2.76.19v-1.57c0-.52-.08-.73-.57-.89a6.39,6.39,0,0,0-1.76-.22c-1.6,0-2.85.65-2.85,2.33s1.57,2.14,3.6,2.76c2.47.79,5.07,1.9,5.07,5.39s-2.82,5.53-6.56,5.53a12.34,12.34,0,0,1-5.47-1.11v-4.28l2.76-.19v1.65c0,.52.08.73.57.89a6.82,6.82,0,0,0,2,.24C138.13,153.41,139.6,152.84,139.6,150.81Z"/><path class="a" d="M146.51,140.21l-1.54-.08v-2.3h6.56V140l-.89.08c-.46.05-.79.22-.79.87v12.49l1.54.08v2.3h-6.56v-2.19l.89-.08c.52-.05.79-.22.79-.89Z"/><path class="a" d="M167.57,154.44a11.17,11.17,0,0,1-6.23,1.73c-4.91,0-8-3-8-9.29,0-7,4.74-9.38,8.65-9.38a12.71,12.71,0,0,1,5.31,1.11v4.61l-2.76.19v-2.11c0-.52-.08-.73-.57-.89a7.07,7.07,0,0,0-2-.22c-3.63,0-5.23,2.44-5.23,6.48,0,4.25,1.41,6.83,4.72,6.83a6.33,6.33,0,0,0,2.87-.65v-4h0l-2.09-.08v-2.3H169v2.17l-.62.05c-.57.05-.79.24-.79.89Z"/><path class="a" d="M170.53,153.65l1-.08c.46,0,.71-.22.71-.76v-12.6l-1.54-.08v-2.3h4.88l7.67,12.44h.05V140.21l-1.79-.08v-2.3h6.61V140l-1,.08c-.41,0-.65.27-.65.84v14.9h-3.17l-7.83-12.63h-.05v10.24l1.76.08v2.3h-6.64Z"/><line class="a" x1="120.23" y1="117.79" x2="58.47" y2="117.79"/><line class="a" x1="220.09" y1="117.79" x2="154.06" y2="117.79"/><line class="a" x1="250.82" y1="15.19" x2="220.5" y2="15.19"/><line class="a" x1="64.14" y1="15.19" x2="33.82" y2="15.19"/><path class="a" d="M55,169.22l.56.23c.29.11.54.12.68-.17l3.44-6.86-.87-.5.64-1.25q2.13,1.09,4.29,2.11c3,1.43,4.25,3.78,2.87,6.93-1.73,4-4.82,4.31-7.52,3q-2.37-1.13-4.71-2.32Zm3.13,1.29,1.68.81c1.86.88,3.59.17,4.67-2.23,1.22-2.71.18-4.09-1.53-4.9l-1.41-.68Z"/><path class="a" d="M65.52,175.64l.53-1.23.57.19c.3.09.54.09.67-.22l3-7.06-.9-.44.56-1.29q3.65,1.58,7.35,3l-1,2.56-1.71-.54.24-.61c.11-.29.15-.49-.28-.66l-2.4-1L71.1,171q1.9.78,3.8,1.52l-.61,1.57q-1.92-.74-3.84-1.53l-1.18,2.85,2.71,1.1c.44.17.55,0,.67-.31l.3-.77,1.67.77-1,2.75Q69.53,177.37,65.52,175.64Z"/><path class="a" d="M81.47,178.49c.33-1-.54-1.59-1.61-2.3-1.52-1-2.82-2.2-2.08-4.18s2.65-2.46,4.89-1.68A8.14,8.14,0,0,1,85.52,172l-.77,2.35L83,173.9l.31-.91c.1-.3.09-.44-.17-.63a4.42,4.42,0,0,0-1-.49c-1-.34-1.85-.23-2.2.73s.52,1.57,1.65,2.36c1.36,1,2.77,2.14,2.11,4.17s-2.84,2.63-5.23,1.79A8.68,8.68,0,0,1,75.22,179l.91-2.45,1.76.52-.34.95c-.11.3-.1.44.17.64a4.91,4.91,0,0,0,1.18.58C80,179.68,81.08,179.66,81.47,178.49Z"/><path class="a" d="M87.74,173.74l-.93-.34.42-1.34q2,.63,4,1.21l-.38,1.28-.56-.11c-.29-.05-.52,0-.63.36l-2.18,7.29,1,.34L88,183.78q-2.11-.62-4.21-1.29l.41-1.27.58.13c.34.07.54,0,.66-.36Z"/><path class="a" d="M98.73,185.7a7.69,7.69,0,0,1-4.3,0c-3.2-.82-4.67-3.17-3.6-6.84,1.19-4.1,4.47-4.67,6.84-4.07a8.68,8.68,0,0,1,3.1,1.45l-.64,2.73-1.76-.3.31-1.25c.07-.3.06-.44-.22-.62a4.84,4.84,0,0,0-1.21-.44c-2.24-.57-3.61.58-4.26,3s-.2,4.27,1.94,4.82a4.42,4.42,0,0,0,1.95.08l.59-2.39h0l-1.31-.38.34-1.36q2.13.54,4.26,1l-.29,1.29-.4-.06c-.37-.05-.53,0-.62.41Z"/><path class="a" d="M100.75,185.68l.64.09c.3,0,.48,0,.56-.35l1.63-7.5-.95-.26.3-1.37,3,.64q1.61,4.2,3.42,8.37h0l1.07-6-1.11-.25.25-1.38q2,.38,4.1.71l-.21,1.32-.62-.05c-.26,0-.43.1-.49.44l-1.49,9-2.08-.36q-1.9-4.24-3.59-8.52h0l-1.26,6.11,1.14.28-.27,1.38q-2.17-.43-4.34-.92Z"/><path class="a" d="M115.51,180.1l-1-.2.21-1.39q2,.32,4.08.59l-.18,1.33-.57,0c-.29,0-.51.06-.57.46l-1,7.54,1,.19-.18,1.39q-2.17-.29-4.33-.62l.21-1.32.59,0c.34,0,.53-.05.59-.46Z"/><path class="a" d="M118.65,188.79l.65,0c.3,0,.48-.08.52-.4l.92-7.62-1-.17.18-1.39,3,.36q2,4,4.17,8h0l.5-6.1-1.12-.15.12-1.4q2.07.18,4.14.32l-.09,1.34h-.62c-.26,0-.42.14-.45.48l-.65,9.06-2.1-.16q-2.28-4-4.35-8.15h0l-.68,6.2,1.15.17-.14,1.4q-2.2-.23-4.39-.5Z"/><path class="a" d="M140.73,190.79a7.61,7.61,0,0,1-4.16,1c-3.27-.11-5.2-2.08-5-5.9.27-4.26,3.32-5.53,5.75-5.46a8.57,8.57,0,0,1,3.32.75l0,2.81-1.77.09,0-1.29c0-.31,0-.45-.35-.55a4.79,4.79,0,0,0-1.26-.17c-2.29-.07-3.37,1.35-3.5,3.81s.72,4.21,2.91,4.28a4.36,4.36,0,0,0,1.9-.35l.05-2.46h0l-1.36-.08,0-1.4q2.18.06,4.35.08v1.32l-.41,0c-.37,0-.51.14-.52.54Z"/><path class="a" d="M152.07,188.37c-.05-1-1.07-1.29-2.31-1.55-1.76-.38-3.38-1-3.42-3.13s1.54-3.26,3.88-3.35a8,8,0,0,1,3.23.52l.14,2.47-1.75.21,0-1c0-.31-.07-.44-.39-.53a4.31,4.31,0,0,0-1.12-.08c-1,0-1.79.46-1.76,1.48s1,1.27,2.37,1.6c1.6.41,3.32,1,3.45,3.11s-1.67,3.48-4.16,3.57a8.46,8.46,0,0,1-3.66-.58l0-2.61,1.81-.16,0,1c0,.31.07.44.39.53A4.75,4.75,0,0,0,150,190C151.18,190,152.13,189.6,152.07,188.37Z"/><path class="a" d="M156.13,181.66l-1,0-.09-1.4q2.05-.14,4.11-.32l.12,1.33-.56.1c-.29.06-.48.17-.45.57l.63,7.59,1,0,.12,1.4q-2.17.19-4.35.33l-.09-1.33.59-.09c.34-.06.51-.17.48-.58Z"/><path class="a" d="M161.09,189.46l.64-.11c.3,0,.45-.18.42-.51l-.76-7.64-1,0-.13-1.4,3-.31q2.81,3.5,5.82,6.91h0l-.84-6.07-1.13.1-.18-1.39q2.06-.27,4.12-.59l.21,1.32-.6.14c-.25.05-.38.22-.33.57l1.34,9-2.09.3q-3.11-3.45-6-7h0l.69,6.2,1.16-.08.16,1.39q-2.2.26-4.4.46Z"/><path class="a" d="M177.78,178.81c-2.12.4-2.94,2-2.52,4.5s1.63,4,4.08,3.47a4.86,4.86,0,0,0,1.26-.4c.3-.16.32-.3.26-.61l-.26-1.3,1.8-.25L183,187a8.55,8.55,0,0,1-3.38,1.37c-3.62.69-5.91-.87-6.5-4.59-.67-4.26,1.79-6.11,4.36-6.6a8.46,8.46,0,0,1,3.28,0l.58,2.75-1.71.47-.25-1.26c-.06-.31-.14-.43-.46-.46A4.35,4.35,0,0,0,177.78,178.81Z"/><path class="a" d="M184.57,187.15l-.29-1.31.57-.18c.29-.1.48-.24.41-.57l-1.68-7.49-1,.16-.3-1.37q3.82-.84,7.62-1.84l.7,2.65-1.69.56-.16-.64c-.08-.3-.16-.49-.61-.37l-2.48.61.65,2.75q2-.47,3.93-1l.42,1.63q-2,.51-4,1l.71,3,2.81-.69c.45-.11.44-.32.36-.64l-.2-.8,1.79-.35.75,2.84Q188.78,186.23,184.57,187.15Z"/><path class="a" d="M197.82,182.44q1.14-2.5,2.19-5c.5-1.2.74-1.73.45-2.62a1.34,1.34,0,0,0-1.83-.91,3.36,3.36,0,0,0-1,.44c-.27.19-.25.35-.16.65l.34,1.12-1.74.41-.75-2.53a8.77,8.77,0,0,1,3.1-1.76c2-.64,3.49.11,4,1.77a4.75,4.75,0,0,1-.44,3.45q-.87,1.94-1.8,3.87,2.16-.67,4.3-1.39l.52,1.55q-3.45,1.16-6.93,2.19Z"/><path class="a" d="M212.63,172.95c1.45,3.63.67,5.75-2,6.72s-4.52-.16-5.76-3.79-.26-5.72,2.05-6.58S211.19,169.33,212.63,172.95Zm-2,.8c-1.08-2.81-2.11-3.31-3.19-2.91s-1.53,1.56-.48,4.5c1,2.69,2,3.27,3.16,2.84S211.8,176.68,210.67,173.75Z"/><path class="a" d="M221.43,169.21c1.63,3.55.95,5.71-1.63,6.82s-4.54.08-6-3.49-.54-5.7,1.74-6.68S219.81,165.66,221.43,169.21Zm-1.93.9c-1.22-2.75-2.28-3.2-3.34-2.74s-1.46,1.64-.26,4.52c1.1,2.64,2.16,3.16,3.31,2.67S220.77,173,219.5,170.11Z"/><path class="a" d="M224,164.6l-1.44,1.79-1.24-.82q1.06-1.52,2.08-3.06l1.54-.76,4.07,8.19,1.74-.78.64,1.25q-2.87,1.46-5.78,2.83L225,172l1.55-.84a.46.46,0,0,0,.24-.72Z"/><path class="a" d="M55,169.22l.56.23c.29.11.54.12.68-.17l3.44-6.86-.87-.5.64-1.25q2.13,1.09,4.29,2.11c3,1.43,4.25,3.78,2.87,6.93-1.73,4-4.82,4.31-7.52,3q-2.37-1.13-4.71-2.32Zm3.13,1.29,1.68.81c1.86.88,3.59.17,4.67-2.23,1.22-2.71.18-4.09-1.53-4.9l-1.41-.68Z"/><path class="a" d="M65.52,175.64l.53-1.23.57.19c.3.09.54.09.67-.22l3-7.06-.9-.44.56-1.29q3.65,1.58,7.35,3l-1,2.56-1.71-.54.24-.61c.11-.29.15-.49-.28-.66l-2.4-1L71.1,171q1.9.78,3.8,1.52l-.61,1.57q-1.92-.74-3.84-1.53l-1.18,2.85,2.71,1.1c.44.17.55,0,.67-.31l.3-.77,1.67.77-1,2.75Q69.53,177.37,65.52,175.64Z"/><path class="a" d="M81.47,178.49c.33-1-.54-1.59-1.61-2.3-1.52-1-2.82-2.2-2.08-4.18s2.65-2.46,4.89-1.68A8.14,8.14,0,0,1,85.52,172l-.77,2.35L83,173.9l.31-.91c.1-.3.09-.44-.17-.63a4.42,4.42,0,0,0-1-.49c-1-.34-1.85-.23-2.2.73s.52,1.57,1.65,2.36c1.36,1,2.77,2.14,2.11,4.17s-2.84,2.63-5.23,1.79A8.68,8.68,0,0,1,75.22,179l.91-2.45,1.76.52-.34.95c-.11.3-.1.44.17.64a4.91,4.91,0,0,0,1.18.58C80,179.68,81.08,179.66,81.47,178.49Z"/><path class="a" d="M87.74,173.74l-.93-.34.42-1.34q2,.63,4,1.21l-.38,1.28-.56-.11c-.29-.05-.52,0-.63.36l-2.18,7.29,1,.34L88,183.78q-2.11-.62-4.21-1.29l.41-1.27.58.13c.34.07.54,0,.66-.36Z"/><path class="a" d="M98.73,185.7a7.69,7.69,0,0,1-4.3,0c-3.2-.82-4.67-3.17-3.6-6.84,1.19-4.1,4.47-4.67,6.84-4.07a8.68,8.68,0,0,1,3.1,1.45l-.64,2.73-1.76-.3.31-1.25c.07-.3.06-.44-.22-.62a4.84,4.84,0,0,0-1.21-.44c-2.24-.57-3.61.58-4.26,3s-.2,4.27,1.94,4.82a4.42,4.42,0,0,0,1.95.08l.59-2.39h0l-1.31-.38.34-1.36q2.13.54,4.26,1l-.29,1.29-.4-.06c-.37-.05-.53,0-.62.41Z"/><path class="a" d="M100.75,185.68l.64.09c.3,0,.48,0,.56-.35l1.63-7.5-.95-.26.3-1.37,3,.64q1.61,4.2,3.42,8.37h0l1.07-6-1.11-.25.25-1.38q2,.38,4.1.71l-.21,1.32-.62-.05c-.26,0-.43.1-.49.44l-1.49,9-2.08-.36q-1.9-4.24-3.59-8.52h0l-1.26,6.11,1.14.28-.27,1.38q-2.17-.43-4.34-.92Z"/><path class="a" d="M115.51,180.1l-1-.2.21-1.39q2,.32,4.08.59l-.18,1.33-.57,0c-.29,0-.51.06-.57.46l-1,7.54,1,.19-.18,1.39q-2.17-.29-4.33-.62l.21-1.32.59,0c.34,0,.53-.05.59-.46Z"/><path class="a" d="M118.65,188.79l.65,0c.3,0,.48-.08.52-.4l.92-7.62-1-.17.18-1.39,3,.36q2,4,4.17,8h0l.5-6.1-1.12-.15.12-1.4q2.07.18,4.14.32l-.09,1.34h-.62c-.26,0-.42.14-.45.48l-.65,9.06-2.1-.16q-2.28-4-4.35-8.15h0l-.68,6.2,1.15.17-.14,1.4q-2.2-.23-4.39-.5Z"/><path class="a" d="M140.73,190.79a7.61,7.61,0,0,1-4.16,1c-3.27-.11-5.2-2.08-5-5.9.27-4.26,3.32-5.53,5.75-5.46a8.57,8.57,0,0,1,3.32.75l0,2.81-1.77.09,0-1.29c0-.31,0-.45-.35-.55a4.79,4.79,0,0,0-1.26-.17c-2.29-.07-3.37,1.35-3.5,3.81s.72,4.21,2.91,4.28a4.36,4.36,0,0,0,1.9-.35l.05-2.46h0l-1.36-.08,0-1.4q2.18.06,4.35.08v1.32l-.41,0c-.37,0-.51.14-.52.54Z"/><path class="a" d="M152.07,188.37c-.05-1-1.07-1.29-2.31-1.55-1.76-.38-3.38-1-3.42-3.13s1.54-3.26,3.88-3.35a8,8,0,0,1,3.23.52l.14,2.47-1.75.21,0-1c0-.31-.07-.44-.39-.53a4.31,4.31,0,0,0-1.12-.08c-1,0-1.79.46-1.76,1.48s1,1.27,2.37,1.6c1.6.41,3.32,1,3.45,3.11s-1.67,3.48-4.16,3.57a8.46,8.46,0,0,1-3.66-.58l0-2.61,1.81-.16,0,1c0,.31.07.44.39.53A4.75,4.75,0,0,0,150,190C151.18,190,152.13,189.6,152.07,188.37Z"/><path class="a" d="M156.13,181.66l-1,0-.09-1.4q2.05-.14,4.11-.32l.12,1.33-.56.1c-.29.06-.48.17-.45.57l.63,7.59,1,0,.12,1.4q-2.17.19-4.35.33l-.09-1.33.59-.09c.34-.06.51-.17.48-.58Z"/><path class="a" d="M161.09,189.46l.64-.11c.3,0,.45-.18.42-.51l-.76-7.64-1,0-.13-1.4,3-.31q2.81,3.5,5.82,6.91h0l-.84-6.07-1.13.1-.18-1.39q2.06-.27,4.12-.59l.21,1.32-.6.14c-.25.05-.38.22-.33.57l1.34,9-2.09.3q-3.11-3.45-6-7h0l.69,6.2,1.16-.08.16,1.39q-2.2.26-4.4.46Z"/><path class="a" d="M177.78,178.81c-2.12.4-2.94,2-2.52,4.5s1.63,4,4.08,3.47a4.86,4.86,0,0,0,1.26-.4c.3-.16.32-.3.26-.61l-.26-1.3,1.8-.25L183,187a8.55,8.55,0,0,1-3.38,1.37c-3.62.69-5.91-.87-6.5-4.59-.67-4.26,1.79-6.11,4.36-6.6a8.46,8.46,0,0,1,3.28,0l.58,2.75-1.71.47-.25-1.26c-.06-.31-.14-.43-.46-.46A4.35,4.35,0,0,0,177.78,178.81Z"/><path class="a" d="M184.57,187.15l-.29-1.31.57-.18c.29-.1.48-.24.41-.57l-1.68-7.49-1,.16-.3-1.37q3.82-.84,7.62-1.84l.7,2.65-1.69.56-.16-.64c-.08-.3-.16-.49-.61-.37l-2.48.61.65,2.75q2-.47,3.93-1l.42,1.63q-2,.51-4,1l.71,3,2.81-.69c.45-.11.44-.32.36-.64l-.2-.8,1.79-.35.75,2.84Q188.78,186.23,184.57,187.15Z"/><path class="a" d="M197.82,182.44q1.14-2.5,2.19-5c.5-1.2.74-1.73.45-2.62a1.34,1.34,0,0,0-1.83-.91,3.36,3.36,0,0,0-1,.44c-.27.19-.25.35-.16.65l.34,1.12-1.74.41-.75-2.53a8.77,8.77,0,0,1,3.1-1.76c2-.64,3.49.11,4,1.77a4.75,4.75,0,0,1-.44,3.45q-.87,1.94-1.8,3.87,2.16-.67,4.3-1.39l.52,1.55q-3.45,1.16-6.93,2.19Z"/><path class="a" d="M212.63,172.95c1.45,3.63.67,5.75-2,6.72s-4.52-.16-5.76-3.79-.26-5.72,2.05-6.58S211.19,169.33,212.63,172.95Zm-2,.8c-1.08-2.81-2.11-3.31-3.19-2.91s-1.53,1.56-.48,4.5c1,2.69,2,3.27,3.16,2.84S211.8,176.68,210.67,173.75Z"/><path class="a" d="M221.43,169.21c1.63,3.55.95,5.71-1.63,6.82s-4.54.08-6-3.49-.54-5.7,1.74-6.68S219.81,165.66,221.43,169.21Zm-1.93.9c-1.22-2.75-2.28-3.2-3.34-2.74s-1.46,1.64-.26,4.52c1.1,2.64,2.16,3.16,3.31,2.67S220.77,173,219.5,170.11Z"/><path class="a" d="M224,164.6l-1.44,1.79-1.24-.82q1.06-1.52,2.08-3.06l1.54-.76,4.07,8.19,1.74-.78.64,1.25q-2.87,1.46-5.78,2.83L225,172l1.55-.84a.46.46,0,0,0,.24-.72Z"/><path class="a" d="M55,169.22l.56.23c.29.11.54.12.68-.17l3.44-6.86-.87-.5.64-1.25q2.13,1.09,4.29,2.11c3,1.43,4.25,3.78,2.87,6.93-1.73,4-4.82,4.31-7.52,3q-2.37-1.13-4.71-2.32Zm3.13,1.29,1.68.81c1.86.88,3.59.17,4.67-2.23,1.22-2.71.18-4.09-1.53-4.9l-1.41-.68Z"/><path class="a" d="M65.52,175.64l.53-1.23.57.19c.3.09.54.09.67-.22l3-7.06-.9-.44.56-1.29q3.65,1.58,7.35,3l-1,2.56-1.71-.54.24-.61c.11-.29.15-.49-.28-.66l-2.4-1L71.1,171q1.9.78,3.8,1.52l-.61,1.57q-1.92-.74-3.84-1.53l-1.18,2.85,2.71,1.1c.44.17.55,0,.67-.31l.3-.77,1.67.77-1,2.75Q69.53,177.37,65.52,175.64Z"/><path class="a" d="M81.47,178.49c.33-1-.54-1.59-1.61-2.3-1.52-1-2.82-2.2-2.08-4.18s2.65-2.46,4.89-1.68A8.14,8.14,0,0,1,85.52,172l-.77,2.35L83,173.9l.31-.91c.1-.3.09-.44-.17-.63a4.42,4.42,0,0,0-1-.49c-1-.34-1.85-.23-2.2.73s.52,1.57,1.65,2.36c1.36,1,2.77,2.14,2.11,4.17s-2.84,2.63-5.23,1.79A8.68,8.68,0,0,1,75.22,179l.91-2.45,1.76.52-.34.95c-.11.3-.1.44.17.64a4.91,4.91,0,0,0,1.18.58C80,179.68,81.08,179.66,81.47,178.49Z"/><path class="a" d="M87.74,173.74l-.93-.34.42-1.34q2,.63,4,1.21l-.38,1.28-.56-.11c-.29-.05-.52,0-.63.36l-2.18,7.29,1,.34L88,183.78q-2.11-.62-4.21-1.29l.41-1.27.58.13c.34.07.54,0,.66-.36Z"/><path class="a" d="M98.73,185.7a7.69,7.69,0,0,1-4.3,0c-3.2-.82-4.67-3.17-3.6-6.84,1.19-4.1,4.47-4.67,6.84-4.07a8.68,8.68,0,0,1,3.1,1.45l-.64,2.73-1.76-.3.31-1.25c.07-.3.06-.44-.22-.62a4.84,4.84,0,0,0-1.21-.44c-2.24-.57-3.61.58-4.26,3s-.2,4.27,1.94,4.82a4.42,4.42,0,0,0,1.95.08l.59-2.39h0l-1.31-.38.34-1.36q2.13.54,4.26,1l-.29,1.29-.4-.06c-.37-.05-.53,0-.62.41Z"/><path class="a" d="M100.75,185.68l.64.09c.3,0,.48,0,.56-.35l1.63-7.5-.95-.26.3-1.37,3,.64q1.61,4.2,3.42,8.37h0l1.07-6-1.11-.25.25-1.38q2,.38,4.1.71l-.21,1.32-.62-.05c-.26,0-.43.1-.49.44l-1.49,9-2.08-.36q-1.9-4.24-3.59-8.52h0l-1.26,6.11,1.14.28-.27,1.38q-2.17-.43-4.34-.92Z"/><path class="a" d="M115.51,180.1l-1-.2.21-1.39q2,.32,4.08.59l-.18,1.33-.57,0c-.29,0-.51.06-.57.46l-1,7.54,1,.19-.18,1.39q-2.17-.29-4.33-.62l.21-1.32.59,0c.34,0,.53-.05.59-.46Z"/><path class="a" d="M118.65,188.79l.65,0c.3,0,.48-.08.52-.4l.92-7.62-1-.17.18-1.39,3,.36q2,4,4.17,8h0l.5-6.1-1.12-.15.12-1.4q2.07.18,4.14.32l-.09,1.34h-.62c-.26,0-.42.14-.45.48l-.65,9.06-2.1-.16q-2.28-4-4.35-8.15h0l-.68,6.2,1.15.17-.14,1.4q-2.2-.23-4.39-.5Z"/><path class="a" d="M140.73,190.79a7.61,7.61,0,0,1-4.16,1c-3.27-.11-5.2-2.08-5-5.9.27-4.26,3.32-5.53,5.75-5.46a8.57,8.57,0,0,1,3.32.75l0,2.81-1.77.09,0-1.29c0-.31,0-.45-.35-.55a4.79,4.79,0,0,0-1.26-.17c-2.29-.07-3.37,1.35-3.5,3.81s.72,4.21,2.91,4.28a4.36,4.36,0,0,0,1.9-.35l.05-2.46h0l-1.36-.08,0-1.4q2.18.06,4.35.08v1.32l-.41,0c-.37,0-.51.14-.52.54Z"/><path class="a" d="M152.07,188.37c-.05-1-1.07-1.29-2.31-1.55-1.76-.38-3.38-1-3.42-3.13s1.54-3.26,3.88-3.35a8,8,0,0,1,3.23.52l.14,2.47-1.75.21,0-1c0-.31-.07-.44-.39-.53a4.31,4.31,0,0,0-1.12-.08c-1,0-1.79.46-1.76,1.48s1,1.27,2.37,1.6c1.6.41,3.32,1,3.45,3.11s-1.67,3.48-4.16,3.57a8.46,8.46,0,0,1-3.66-.58l0-2.61,1.81-.16,0,1c0,.31.07.44.39.53A4.75,4.75,0,0,0,150,190C151.18,190,152.13,189.6,152.07,188.37Z"/><path class="a" d="M156.13,181.66l-1,0-.09-1.4q2.05-.14,4.11-.32l.12,1.33-.56.1c-.29.06-.48.17-.45.57l.63,7.59,1,0,.12,1.4q-2.17.19-4.35.33l-.09-1.33.59-.09c.34-.06.51-.17.48-.58Z"/><path class="a" d="M161.09,189.46l.64-.11c.3,0,.45-.18.42-.51l-.76-7.64-1,0-.13-1.4,3-.31q2.81,3.5,5.82,6.91h0l-.84-6.07-1.13.1-.18-1.39q2.06-.27,4.12-.59l.21,1.32-.6.14c-.25.05-.38.22-.33.57l1.34,9-2.09.3q-3.11-3.45-6-7h0l.69,6.2,1.16-.08.16,1.39q-2.2.26-4.4.46Z"/><path class="a" d="M177.78,178.81c-2.12.4-2.94,2-2.52,4.5s1.63,4,4.08,3.47a4.86,4.86,0,0,0,1.26-.4c.3-.16.32-.3.26-.61l-.26-1.3,1.8-.25L183,187a8.55,8.55,0,0,1-3.38,1.37c-3.62.69-5.91-.87-6.5-4.59-.67-4.26,1.79-6.11,4.36-6.6a8.46,8.46,0,0,1,3.28,0l.58,2.75-1.71.47-.25-1.26c-.06-.31-.14-.43-.46-.46A4.35,4.35,0,0,0,177.78,178.81Z"/><path class="a" d="M184.57,187.15l-.29-1.31.57-.18c.29-.1.48-.24.41-.57l-1.68-7.49-1,.16-.3-1.37q3.82-.84,7.62-1.84l.7,2.65-1.69.56-.16-.64c-.08-.3-.16-.49-.61-.37l-2.48.61.65,2.75q2-.47,3.93-1l.42,1.63q-2,.51-4,1l.71,3,2.81-.69c.45-.11.44-.32.36-.64l-.2-.8,1.79-.35.75,2.84Q188.78,186.23,184.57,187.15Z"/><path class="a" d="M197.82,182.44q1.14-2.5,2.19-5c.5-1.2.74-1.73.45-2.62a1.34,1.34,0,0,0-1.83-.91,3.36,3.36,0,0,0-1,.44c-.27.19-.25.35-.16.65l.34,1.12-1.74.41-.75-2.53a8.77,8.77,0,0,1,3.1-1.76c2-.64,3.49.11,4,1.77a4.75,4.75,0,0,1-.44,3.45q-.87,1.94-1.8,3.87,2.16-.67,4.3-1.39l.52,1.55q-3.45,1.16-6.93,2.19Z"/><path class="a" d="M212.63,172.95c1.45,3.63.67,5.75-2,6.72s-4.52-.16-5.76-3.79-.26-5.72,2.05-6.58S211.19,169.33,212.63,172.95Zm-2,.8c-1.08-2.81-2.11-3.31-3.19-2.91s-1.53,1.56-.48,4.5c1,2.69,2,3.27,3.16,2.84S211.8,176.68,210.67,173.75Z"/><path class="a" d="M221.43,169.21c1.63,3.55.95,5.71-1.63,6.82s-4.54.08-6-3.49-.54-5.7,1.74-6.68S219.81,165.66,221.43,169.21Zm-1.93.9c-1.22-2.75-2.28-3.2-3.34-2.74s-1.46,1.64-.26,4.52c1.1,2.64,2.16,3.16,3.31,2.67S220.77,173,219.5,170.11Z"/><path class="a" d="M224,164.6l-1.44,1.79-1.24-.82q1.06-1.52,2.08-3.06l1.54-.76,4.07,8.19,1.74-.78.64,1.25q-2.87,1.46-5.78,2.83L225,172l1.55-.84a.46.46,0,0,0,.24-.72Z"/><line class="a" x1="116.75" y1="165.89" x2="159.23" y2="165.89"/><polygon class="a" points="82.23 137.63 84.36 144.09 91.18 144.12 85.68 148.15 87.76 154.64 82.23 150.66 76.7 154.64 78.78 148.15 73.28 144.12 80.1 144.09 82.23 137.63"/><polygon class="a" points="203.45 137.63 205.59 144.09 212.4 144.12 206.91 148.15 208.98 154.64 203.45 150.66 197.93 154.64 200 148.15 194.51 144.12 201.32 144.09 203.45 137.63"/><line class="a" x1="62.73" y1="134.45" x2="46.82" y2="127.25"/><line class="a" x1="62.73" y1="149.18" x2="46.82" y2="156.38"/><line class="a" x1="62.23" y1="141.65" x2="34.88" y2="141.65"/><circle class="a" cx="50.45" cy="135.67" r="1.72"/><circle class="a" cx="50.45" cy="147.8" r="1.72"/><line class="a" x1="221.48" y1="134.45" x2="237.39" y2="127.25"/><line class="a" x1="221.48" y1="149.18" x2="237.39" y2="156.38"/><line class="a" x1="221.99" y1="141.65" x2="249.34" y2="141.65"/><circle class="a" cx="233.76" cy="135.67" r="1.72"/><circle class="a" cx="233.76" cy="147.8" r="1.72"/><path class="b" d="M50.53,63.68,42.83,99c-3.1,14.38-8.65,23.4-24.06,23.4-8.93,0-13.07-6.49-13.07-13s4-12.88,11.47-12.88c3.76,0,9.21.28,9.21,6.3a15.19,15.19,0,0,1-.56,3.76c-2.35-2-3.76-2.44-5.64-2.44-4.32,0-6.58,3.67-6.58,7.14,0,3.29,2,6.39,5.92,6.39,4.23,0,7.24-1.88,9.4-11.56l3.76-16.83a28.84,28.84,0,0,1-11.47,3.38C5.89,92.73,1,81.64,1,68.67c0-18,12.31-36.19,33.27-36.19,8.74,0,17.48,3.48,17.48,12.6,0,5-1.79,8.65-6.58,8.65-1.5,0-4.7-.38-6.49-2.44,2.35-.66,4.14-5.36,4.14-7.71,0-1.5-.47-6.67-6.49-6.67C26,36.9,15.47,54.47,15.47,69.42c0,8.37,3.1,15.51,10.9,15.51,3.48,0,6-.85,8-3.48l4-17.76Z"/><path class="b" d="M74,56l-1,4.7C76.38,58,80.14,56,84.09,56c4.23,0,6.77,2.44,6.77,6,0,3.29-2.44,7.33-7,7.33-5.26,0-2.63-6.2-5.45-6.2s-4.32,1-6.49,3L64.07,103H50.54l10-47Z"/><path class="b" d="M132.22,56l-6.77,32a17.76,17.76,0,0,0-.38,2.91c0,2.07.94,3.57,4.7,3.57s8.65-5.26,12.41-8.27h3.2C141.05,90.47,130.43,103,123.1,103c-6.11,0-10.25-2.26-11.47-7.14-2.82,3.85-7,7.71-12.78,7.71-9,0-11.66-6.39-11.66-11.94,0-16.17,5.83-35.53,24.63-35.53a10.21,10.21,0,0,1,6.3,2.35l.56-2.44ZM99.88,89.06c0,5.64,3.1,6.67,5.45,6.67,2.16,0,4.23-2.07,6-4.7a21.85,21.85,0,0,1,.56-3.1L117.18,63a7,7,0,0,0-4.61-1.69C105.52,61.33,99.88,76.28,99.88,89.06Z"/><path class="b" d="M155.62,56l-.38,1.79a14.25,14.25,0,0,1,6.58-1.69c9.78,0,14.38,3.48,14.38,13.16a43.38,43.38,0,0,1-.56,6.58c-2.91,20.21-11,27.07-20.58,27.07a16.37,16.37,0,0,1-8.83-2.82l-4.89,23-14.19,3.38L142.09,56Zm8,21a49.89,49.89,0,0,0,1.22-9.49c0-5.64-2.26-6.77-5.26-6.77a9.67,9.67,0,0,0-5.36,2l-6.77,31.58a9.46,9.46,0,0,0,6.11,1.69C158.26,95.92,160.51,91.88,163.61,76.94Z"/><path class="b" d="M216.25,87.93a13.09,13.09,0,0,0-.47,3c0,2.07,1,3.48,4.7,3.48s8.65-5.26,12.41-8.27h3.2C231.76,90.47,221.14,103,213.81,103s-11.66-3.2-11.66-10.25a22.82,22.82,0,0,1,.56-4.79L206.29,71a11.45,11.45,0,0,0,.28-2.44c0-3.38-1.79-5.55-4.32-5.55a9.49,9.49,0,0,0-5.83,2l-8.08,38H174.8l13.63-63.92,13.91-1.88L197.26,61c3.85-2.73,8.18-5,12.22-5,5.08,0,10.81,5.45,10.81,11.75A9.13,9.13,0,0,1,220.1,70Z"/><path class="b" d="M246.9,56l-6.77,32a17.65,17.65,0,0,0-.38,2.91c0,2.07.94,3.57,4.7,3.57s8.65-5.26,12.41-8.27h3.2C255.73,90.47,245.11,103,237.78,103S226,99.78,226,92.73a23.54,23.54,0,0,1,.56-4.79l6.77-32ZM242.57,36a7.54,7.54,0,0,1,7.52,7.52A7.46,7.46,0,0,1,242.57,51a7.38,7.38,0,0,1-7.43-7.43A7.46,7.46,0,0,1,242.57,36Z"/><path class="b" d="M251.41,87.56c0-13.72,5.92-31.86,24.16-31.86,5.08,0,10.34,1.32,10.34,6.49a9.58,9.58,0,0,1-.47,3.1h-5.36a10.39,10.39,0,0,0,.47-2.63c0-2.26-1.41-3.2-3.48-3.2-7.9,0-13,15.32-13,25.47,0,4.61,1,10.06,6.77,10.06,5.08,0,9.49-2.35,13.16-5.55,0,8.18-7,13.54-18.8,13.54C257.42,103,251.41,98.65,251.41,87.56Z"/><path class="c" d="M85.26,10.24V7.84a2.62,2.62,0,0,0-5.23,0v17.6a2.62,2.62,0,0,0,5.23,0V23h5.49v2.4c0,3.09-2.48,6.84-8,6.84-6,0-8.28-3.75-8.28-6.8V7.84C74.5,4.75,76.76,1,82.77,1c5.49,0,8,3.75,8,6.84v2.4Z"/><path class="c" d="M106.69,31.89,101.5,19.6H99.76V31.89h-5.4V1.39h9.1c5.23,0,7.71,3.83,7.71,8.71,0,4.53-2,7.45-4.57,8.76l5.75,13ZM99.76,15h1.74C105,15,106,14.55,106,10.1c0-2.44-.57-4.36-2.7-4.36H99.76Z"/><path class="c" d="M120.41,5.75v7.49h5.53V17.6h-5.53v9.93h8.32v4.36H115V1.39h13.16V5.75Z"/><path class="c" d="M142.36,24.79h-5.27l-1,7.1h-5.14l6.27-30.49h5.45l6.27,30.49h-5.45Zm-.87-4.4L139.84,9.45h-.13L138,20.39Z"/><path class="c" d="M163.67,5.71H158V31.89H152.6V5.71H147V1.39h16.64Z"/><path class="c" d="M172.29,31.89h-5.45V1.39h5.45Z"/><path class="c" d="M188,31.89h-5.79L175.47,1.39h5.84L185.18,24h.09l4-22.57H195Z"/><path class="c" d="M203.65,5.75v7.49h5.53V17.6h-5.53v9.93H212v4.36H198.21V1.39h13.16V5.75Z"/><path class="b" d="M97.83,153.65l.89-.08c.46-.05.79-.22.79-.76v-12.6L98,140.13v-2.3h7.43c5.18,0,8.46,2.74,8.46,8.37,0,7.1-4,9.65-8.32,9.65h-7.7Zm5-.41h2.76c3,0,4.93-2.22,4.93-6.56,0-4.88-2.36-6.23-5.28-6.23h-2.41Z"/><path class="b" d="M115.85,155.85v-2.19l.89-.08c.46-.05.79-.22.79-.76v-12.6l-1.54-.08v-2.3H128.4v4.5l-2.76.19v-1.08c0-.51-.05-.84-.79-.84h-4v4.63h6.26V148h-6.26v5.07h4.36c.71,0,.76-.33.76-.87v-1.35l2.76.19v4.82Z"/><path class="b" d="M139.6,150.81c0-1.71-1.54-2.2-3.44-2.71-2.68-.73-5.18-1.82-5.18-5.28,0-3.31,2.55-5.31,6.29-5.31a11.82,11.82,0,0,1,5.09,1.11v4.07l-2.76.19v-1.57c0-.52-.08-.73-.57-.89a6.39,6.39,0,0,0-1.76-.22c-1.6,0-2.85.65-2.85,2.33s1.57,2.14,3.6,2.76c2.47.79,5.07,1.9,5.07,5.39s-2.82,5.53-6.56,5.53a12.34,12.34,0,0,1-5.47-1.11v-4.28l2.76-.19v1.65c0,.52.08.73.57.89a6.82,6.82,0,0,0,2,.24C138.13,153.41,139.6,152.84,139.6,150.81Z"/><path class="b" d="M146.51,140.21l-1.54-.08v-2.3h6.56V140l-.89.08c-.46.05-.79.22-.79.87v12.49l1.54.08v2.3h-6.56v-2.19l.89-.08c.52-.05.79-.22.79-.89Z"/><path class="b" d="M167.57,154.44a11.17,11.17,0,0,1-6.23,1.73c-4.91,0-8-3-8-9.29,0-7,4.74-9.38,8.65-9.38a12.71,12.71,0,0,1,5.31,1.11v4.61l-2.76.19v-2.11c0-.52-.08-.73-.57-.89a7.07,7.07,0,0,0-2-.22c-3.63,0-5.23,2.44-5.23,6.48,0,4.25,1.41,6.83,4.72,6.83a6.33,6.33,0,0,0,2.87-.65v-4h0l-2.09-.08v-2.3H169v2.17l-.62.05c-.57.05-.79.24-.79.89Z"/><path class="b" d="M170.53,153.65l1-.08c.46,0,.71-.22.71-.76v-12.6l-1.54-.08v-2.3h4.88l7.67,12.44h.05V140.21l-1.79-.08v-2.3h6.61V140l-1,.08c-.41,0-.65.27-.65.84v14.9h-3.17l-7.83-12.63h-.05v10.24l1.76.08v2.3h-6.64Z"/><line class="d" x1="120.23" y1="117.79" x2="58.47" y2="117.79"/><line class="d" x1="220.09" y1="117.79" x2="154.06" y2="117.79"/><line class="d" x1="250.82" y1="15.19" x2="220.5" y2="15.19"/><line class="d" x1="64.14" y1="15.19" x2="33.82" y2="15.19"/><path class="c" d="M55,169.22l.56.23c.29.11.54.12.68-.17l3.44-6.86-.87-.5.64-1.25q2.13,1.09,4.29,2.11c3,1.43,4.25,3.78,2.87,6.93-1.73,4-4.82,4.31-7.52,3q-2.37-1.13-4.71-2.32Zm3.13,1.29,1.68.81c1.86.88,3.59.17,4.67-2.23,1.22-2.71.18-4.09-1.53-4.9l-1.41-.68Z"/><path class="c" d="M65.52,175.64l.53-1.23.57.19c.3.09.54.09.67-.22l3-7.06-.9-.44.56-1.29q3.65,1.58,7.35,3l-1,2.56-1.71-.54.24-.61c.11-.29.15-.49-.28-.66l-2.4-1L71.1,171q1.9.78,3.8,1.52l-.61,1.57q-1.92-.74-3.84-1.53l-1.18,2.85,2.71,1.1c.44.17.55,0,.67-.31l.3-.77,1.67.77-1,2.75Q69.53,177.37,65.52,175.64Z"/><path class="c" d="M81.47,178.49c.33-1-.54-1.59-1.61-2.3-1.52-1-2.82-2.2-2.08-4.18s2.65-2.46,4.89-1.68A8.14,8.14,0,0,1,85.52,172l-.77,2.35L83,173.9l.31-.91c.1-.3.09-.44-.17-.63a4.42,4.42,0,0,0-1-.49c-1-.34-1.85-.23-2.2.73s.52,1.57,1.65,2.36c1.36,1,2.77,2.14,2.11,4.17s-2.84,2.63-5.23,1.79A8.68,8.68,0,0,1,75.22,179l.91-2.45,1.76.52-.34.95c-.11.3-.1.44.17.64a4.91,4.91,0,0,0,1.18.58C80,179.68,81.08,179.66,81.47,178.49Z"/><path class="c" d="M87.74,173.74l-.93-.34.42-1.34q2,.63,4,1.21l-.38,1.28-.56-.11c-.29-.05-.52,0-.63.36l-2.18,7.29,1,.34L88,183.78q-2.11-.62-4.21-1.29l.41-1.27.58.13c.34.07.54,0,.66-.36Z"/><path class="c" d="M98.73,185.7a7.69,7.69,0,0,1-4.3,0c-3.2-.82-4.67-3.17-3.6-6.84,1.19-4.1,4.47-4.67,6.84-4.07a8.68,8.68,0,0,1,3.1,1.45l-.64,2.73-1.76-.3.31-1.25c.07-.3.06-.44-.22-.62a4.84,4.84,0,0,0-1.21-.44c-2.24-.57-3.61.58-4.26,3s-.2,4.27,1.94,4.82a4.42,4.42,0,0,0,1.95.08l.59-2.39h0l-1.31-.38.34-1.36q2.13.54,4.26,1l-.29,1.29-.4-.06c-.37-.05-.53,0-.62.41Z"/><path class="c" d="M100.75,185.68l.64.09c.3,0,.48,0,.56-.35l1.63-7.5-.95-.26.3-1.37,3,.64q1.61,4.2,3.42,8.37h0l1.07-6-1.11-.25.25-1.38q2,.38,4.1.71l-.21,1.32-.62-.05c-.26,0-.43.1-.49.44l-1.49,9-2.08-.36q-1.9-4.24-3.59-8.52h0l-1.26,6.11,1.14.28-.27,1.38q-2.17-.43-4.34-.92Z"/><path class="c" d="M115.51,180.1l-1-.2.21-1.39q2,.32,4.08.59l-.18,1.33-.57,0c-.29,0-.51.06-.57.46l-1,7.54,1,.19-.18,1.39q-2.17-.29-4.33-.62l.21-1.32.59,0c.34,0,.53-.05.59-.46Z"/><path class="c" d="M118.65,188.79l.65,0c.3,0,.48-.08.52-.4l.92-7.62-1-.17.18-1.39,3,.36q2,4,4.17,8h0l.5-6.1-1.12-.15.12-1.4q2.07.18,4.14.32l-.09,1.34h-.62c-.26,0-.42.14-.45.48l-.65,9.06-2.1-.16q-2.28-4-4.35-8.15h0l-.68,6.2,1.15.17-.14,1.4q-2.2-.23-4.39-.5Z"/><path class="c" d="M140.73,190.79a7.61,7.61,0,0,1-4.16,1c-3.27-.11-5.2-2.08-5-5.9.27-4.26,3.32-5.53,5.75-5.46a8.57,8.57,0,0,1,3.32.75l0,2.81-1.77.09,0-1.29c0-.31,0-.45-.35-.55a4.79,4.79,0,0,0-1.26-.17c-2.29-.07-3.37,1.35-3.5,3.81s.72,4.21,2.91,4.28a4.36,4.36,0,0,0,1.9-.35l.05-2.46h0l-1.36-.08,0-1.4q2.18.06,4.35.08v1.32l-.41,0c-.37,0-.51.14-.52.54Z"/><path class="c" d="M152.07,188.37c-.05-1-1.07-1.29-2.31-1.55-1.76-.38-3.38-1-3.42-3.13s1.54-3.26,3.88-3.35a8,8,0,0,1,3.23.52l.14,2.47-1.75.21,0-1c0-.31-.07-.44-.39-.53a4.31,4.31,0,0,0-1.12-.08c-1,0-1.79.46-1.76,1.48s1,1.27,2.37,1.6c1.6.41,3.32,1,3.45,3.11s-1.67,3.48-4.16,3.57a8.46,8.46,0,0,1-3.66-.58l0-2.61,1.81-.16,0,1c0,.31.07.44.39.53A4.75,4.75,0,0,0,150,190C151.18,190,152.13,189.6,152.07,188.37Z"/><path class="c" d="M156.13,181.66l-1,0-.09-1.4q2.05-.14,4.11-.32l.12,1.33-.56.1c-.29.06-.48.17-.45.57l.63,7.59,1,0,.12,1.4q-2.17.19-4.35.33l-.09-1.33.59-.09c.34-.06.51-.17.48-.58Z"/><path class="c" d="M161.09,189.46l.64-.11c.3,0,.45-.18.42-.51l-.76-7.64-1,0-.13-1.4,3-.31q2.81,3.5,5.82,6.91h0l-.84-6.07-1.13.1-.18-1.39q2.06-.27,4.12-.59l.21,1.32-.6.14c-.25.05-.38.22-.33.57l1.34,9-2.09.3q-3.11-3.45-6-7h0l.69,6.2,1.16-.08.16,1.39q-2.2.26-4.4.46Z"/><path class="c" d="M177.78,178.81c-2.12.4-2.94,2-2.52,4.5s1.63,4,4.08,3.47a4.86,4.86,0,0,0,1.26-.4c.3-.16.32-.3.26-.61l-.26-1.3,1.8-.25L183,187a8.55,8.55,0,0,1-3.38,1.37c-3.62.69-5.91-.87-6.5-4.59-.67-4.26,1.79-6.11,4.36-6.6a8.46,8.46,0,0,1,3.28,0l.58,2.75-1.71.47-.25-1.26c-.06-.31-.14-.43-.46-.46A4.35,4.35,0,0,0,177.78,178.81Z"/><path class="c" d="M184.57,187.15l-.29-1.31.57-.18c.29-.1.48-.24.41-.57l-1.68-7.49-1,.16-.3-1.37q3.82-.84,7.62-1.84l.7,2.65-1.69.56-.16-.64c-.08-.3-.16-.49-.61-.37l-2.48.61.65,2.75q2-.47,3.93-1l.42,1.63q-2,.51-4,1l.71,3,2.81-.69c.45-.11.44-.32.36-.64l-.2-.8,1.79-.35.75,2.84Q188.78,186.23,184.57,187.15Z"/><path class="c" d="M197.82,182.44q1.14-2.5,2.19-5c.5-1.2.74-1.73.45-2.62a1.34,1.34,0,0,0-1.83-.91,3.36,3.36,0,0,0-1,.44c-.27.19-.25.35-.16.65l.34,1.12-1.74.41-.75-2.53a8.77,8.77,0,0,1,3.1-1.76c2-.64,3.49.11,4,1.77a4.75,4.75,0,0,1-.44,3.45q-.87,1.94-1.8,3.87,2.16-.67,4.3-1.39l.52,1.55q-3.45,1.16-6.93,2.19Z"/><path class="c" d="M212.63,172.95c1.45,3.63.67,5.75-2,6.72s-4.52-.16-5.76-3.79-.26-5.72,2.05-6.58S211.19,169.33,212.63,172.95Zm-2,.8c-1.08-2.81-2.11-3.31-3.19-2.91s-1.53,1.56-.48,4.5c1,2.69,2,3.27,3.16,2.84S211.8,176.68,210.67,173.75Z"/><path class="c" d="M221.43,169.21c1.63,3.55.95,5.71-1.63,6.82s-4.54.08-6-3.49-.54-5.7,1.74-6.68S219.81,165.66,221.43,169.21Zm-1.93.9c-1.22-2.75-2.28-3.2-3.34-2.74s-1.46,1.64-.26,4.52c1.1,2.64,2.16,3.16,3.31,2.67S220.77,173,219.5,170.11Z"/><path class="c" d="M224,164.6l-1.44,1.79-1.24-.82q1.06-1.52,2.08-3.06l1.54-.76,4.07,8.19,1.74-.78.64,1.25q-2.87,1.46-5.78,2.83L225,172l1.55-.84a.46.46,0,0,0,.24-.72Z"/><line class="e" x1="116.75" y1="165.89" x2="159.23" y2="165.89"/><polygon class="c" points="82.23 137.63 84.36 144.09 91.18 144.12 85.68 148.15 87.76 154.64 82.23 150.66 76.7 154.64 78.78 148.15 73.28 144.12 80.1 144.09 82.23 137.63"/><polygon class="c" points="203.45 137.63 205.59 144.09 212.4 144.12 206.91 148.15 208.98 154.64 203.45 150.66 197.93 154.64 200 148.15 194.51 144.12 201.32 144.09 203.45 137.63"/><line class="f" x1="62.73" y1="134.45" x2="46.82" y2="127.25"/><line class="f" x1="62.73" y1="149.18" x2="46.82" y2="156.38"/><line class="f" x1="62.23" y1="141.65" x2="34.88" y2="141.65"/><circle class="c" cx="50.45" cy="135.67" r="1.72"/><circle class="c" cx="50.45" cy="147.8" r="1.72"/><line class="f" x1="221.48" y1="134.45" x2="237.39" y2="127.25"/><line class="f" x1="221.48" y1="149.18" x2="237.39" y2="156.38"/><line class="f" x1="221.99" y1="141.65" x2="249.34" y2="141.65"/><circle class="c" cx="233.76" cy="135.67" r="1.72"/><circle class="c" cx="233.76" cy="147.8" r="1.72"/></svg>