<svg xmlns="http://www.w3.org/2000/svg" viewBox="0 0 307.64 275.16"><defs><style>.a,.b,.e,.f{fill:none;stroke-miterlimit:10;}.a,.b,.e{stroke:#3d4b5d;}.a{stroke-width:11.55px;}.b{stroke-width:5.78px;}.c{fill:#3d4b5d;}.d{fill:#fff;}.e{stroke-linecap:round;stroke-width:2.89px;}.f{stroke:#fff;stroke-width:4.33px;}</style></defs><title>logo-genuine</title><path class="a" d="M254.74,58.57S220.49,33.32,151.9,33.32,49.06,58.57,49.06,58.57v83.68c0,103.15,71.2,97.86,102.9,125.27,31.7-27.41,102.72-22.15,102.72-125.3Z"/><path class="b" d="M242.89,67.9s-30.31-22.34-91-22.34-91,22.34-91,22.34v74c0,91.25,63,86.58,91,110.83,28-24.25,90.87-19.6,90.87-110.85Z"/><path class="c" d="M284.48,240.15a297,297,0,0,0-261.32,0q1.47-15.52,4.4-31.21Q14.36,200.38,0,192.88a349.64,349.64,0,0,1,307.64,0q-12.94,8.17-24.91,17.2Q284.21,225.21,284.48,240.15Z"/><path class="d" d="M106.41,194.14a17.66,17.66,0,0,1-6.71,2.63c-5.41.95-9.25-1.33-10.41-6.89s1.8-10.05,7.72-11.08a20.23,20.23,0,0,1,6.66.19l.49,4.14-1.84.29L101,180.8a14.85,14.85,0,0,0-3.94.15c-3.86.68-5.52,3.58-4.62,8.16s3.73,6.08,7.27,5.47a15.14,15.14,0,0,0,3.73-1.26l-.66-4.09-2.44-.11-.23-1.37q3.62-.67,7.26-1.26l.22,1.5-2,.81Z"/><path class="d" d="M121.58,183.21l.2,2q-3.23.32-6.46.71l.74,6.14q3.16-.38,6.33-.69.15-1.28.3-2.57l1.81-.17.42,4.52q-6.92.64-13.81,1.58l-.21-1.5,2.27-.81-1.75-13.52-2.51-.18-.19-1.37q2.73-.44,5.47-.83,4.4-.53,8.82-.94l.4,4.27-1.86.18-.94-2.19q-3.09.31-6.17.68l.65,5.39Q118.33,183.53,121.58,183.21Z"/><path class="d" d="M135,190.87l.09,1.51q-3.71.22-7.41.53l-.13-1.51,2.3-.69-1-13.59-2.49-.31-.12-1.38q3-.32,6.07-.58,5.24,6.73,10.08,13.62l-.44-12.08-2.47-.41-.06-1.39q3.77-.23,7.54-.37l0,1.51-2.44.56L145,192l-3.43.12q-4.8-6.77-10-13.39l.81,11.86Z"/><path class="d" d="M166.83,184.9c-.2,4.68-2.1,7.33-7.85,7.22-5.34-.08-7.29-2.42-7.33-7.1l-.06-8.83-2.46-.48,0-1.39q4.13-.12,8.27-.14l0,1.51-2.75.49q0,4.42,0,8.83c0,3.79,1.37,4.92,4.55,5,3.45.06,4.6-1.27,4.73-5.19l.26-8.45-2.73-.58,0-1.39q4.14,0,8.27.17l-.07,1.51-2.48.4Z"/><path class="d" d="M171.29,190.79l2.38-.37.85-13.6-2.42-.65.08-1.39q4,.16,8,.41l-.12,1.51-2.49.32-1,13.59,2.31.68-.12,1.51q-3.77-.3-7.55-.51Z"/><path class="d" d="M188.65,192.23l-.17,1.51q-3.69-.41-7.39-.73l.13-1.51,2.39-.29,1.28-13.57-2.4-.72.12-1.38q3,.2,6.09.46,4,7.52,7.64,15.12l1.61-12-2.37-.82.17-1.38q3.76.41,7.51.91l-.23,1.5-2.51.14L198.32,195l-3.41-.47q-3.6-7.49-7.61-14.89l-1.21,11.83Z"/><path class="d" d="M216.33,187.66l-.39,2q-3.2-.63-6.4-1.19l-1.07,6.09q3.15.55,6.28,1.16l1-2.37,1.79.36-.91,4.45q-6.83-1.39-13.71-2.48l.24-1.5,2.41-.12,2.23-13.45-2.35-.89.22-1.37q2.74.37,5.48.78,4.38.77,8.74,1.65l-.85,4.21-1.84-.37q-.13-1.18-.27-2.37-3.06-.59-6.12-1.13l-.94,5.34Q213.11,187,216.33,187.66Z"/><polygon class="d" points="151.94 215.05 154.83 223.81 164.05 223.85 156.61 229.3 159.43 238.09 151.94 232.7 144.45 238.09 147.27 229.3 139.83 223.85 149.05 223.81 151.94 215.05"/><polygon class="d" points="151.94 57.4 154.83 66.16 164.05 66.2 156.61 71.66 159.43 80.44 151.94 75.05 144.45 80.44 147.27 71.66 139.83 66.2 149.05 66.16 151.94 57.4"/><path class="d" d="M71.91,30.55a11.2,11.2,0,0,1-4.66,3.65C63.17,36,59.5,34.94,57.06,30c-2.73-5.49.61-9.41,4.16-11a13.07,13.07,0,0,1,5.19-1.17L68,21.59l-2.39,1.19-.73-1.69c-.18-.41-.33-.56-.82-.5a7.47,7.47,0,0,0-1.87.61c-3.25,1.45-3.76,4.06-2.25,7.24,1.59,3.36,3.73,4.82,6.52,3.57a6.35,6.35,0,0,0,2.21-1.59l-1.39-3.24h0l-1.83.72-.81-1.84q2.94-1.3,5.91-2.51l.71,1.75-.53.27c-.48.25-.6.48-.39,1Z"/><path class="d" d="M74.17,28.89l.74-.37c.38-.2.61-.44.43-.88l-4-10.25-1.43.49L69.18,16q3.38-1.34,6.79-2.57c3.68-1.32,6.38-1,7.38,2.06a4.46,4.46,0,0,1-1.6,4.93,2.34,2.34,0,0,1,1.84.9q1.46,1.47,2.88,3l1.36-.39.61,1.92q-2.89.93-5.77,1.94L82,25.94l.66-.31c.52-.26.57-.5.2-.87L81,22.92a1.53,1.53,0,0,0-1.87-.49l-2.17.8,1.44,3.86,1.54-.49.69,1.89q-2.89,1.05-5.75,2.19Zm4.1-8.54c2.05-.74,2.67-1.92,2.13-3.51-.69-2-2.07-1.82-4.17-1.06l-1.8.66,1.75,4.68Z"/><path class="d" d="M90.27,11l-1.62.33L88.1,9.45q2.9-.86,5.82-1.64,4.36,5.9,8.42,11.94h0l1.39-.26.46,2q-3.07.72-6.13,1.54l-.49-1.85.89-.31c.49-.18.69-.38.4-.84L98,18.7q-2.83.74-5.64,1.56-.07,1.1-.13,2.21l1.45-.35L94.22,24q-2.73.78-5.43,1.64l-.58-1.83.76-.31c.39-.17.48-.37.52-.86Q89.77,16.84,90.27,11Zm2.06,7q2.26-.65,4.53-1.25-2-3-4-5.9l-.07,0Q92.52,14.44,92.32,18Z"/><path class="d" d="M104.66,19.38l.78-.25c.4-.14.66-.34.56-.8L103.61,7.59l-1.47.26-.45-2q3.67-.84,7.36-1.56c3.81-.73,6.41.54,6.91,3.66.57,3.55-1.81,5.75-5.51,6.47l-2.09.42.69,3.36,2.34-.4.38,2q-3.36.65-6.7,1.42Zm5-7.1c2.16-.43,3.51-1.38,3.14-3.46-.43-2.4-2-2.51-4.51-2l-1.56.32,1.14,5.51Z"/><path class="d" d="M129.82,10.23q-3.54.36-7.07.83l.64,4.73,1.42-.12.26,2q-2.92.37-5.84.83l-.3-1.89.79-.19c.41-.11.68-.29.61-.76L118.7,4.79l-1.48.15-.31-2q3.14-.49,6.29-.89l.24,1.9-.84.18c-.48.11-.75.29-.67.88l.49,3.63q3.57-.48,7.16-.84l-.44-4.33-1.48.08-.22-2q3.15-.34,6.31-.59l.15,1.91-.85.14c-.44.08-.73.25-.68.82l.94,10.86,1.4,0,.16,2q-2.94.23-5.87.55l-.21-1.9.8-.16c.46-.1.69-.26.63-.85Z"/><path class="d" d="M137.08,2.82l-1.48,0-.14-2q3.16-.23,6.33-.36l.08,1.91-.85.11c-.44.07-.74.23-.71.79l.54,10.89h1.4l.09,2q-2.94.13-5.88.34l-.14-1.91.8-.13c.46-.08.7-.24.66-.83Z"/><path class="d" d="M151.77,2.34c-3.28,0-4.87,2.17-4.79,5.74.08,3.72,1.41,6,4.81,5.89a6.68,6.68,0,0,0,1.8-.2c.44-.14.52-.32.53-.77l0-1.89,2.54.21-.11,4.09a12.05,12.05,0,0,1-4.83.9c-4.91,0-7.69-2.56-7.9-8C143.59,2.19,147.72,0,151.78,0a12.39,12.39,0,0,1,4.9,1l-.1,4L154,5.17l0-1.84c0-.45-.07-.64-.53-.79A6.51,6.51,0,0,0,151.77,2.34Z"/><path class="d" d="M163.56,14.46l.81,0c.42,0,.72-.14.75-.62l.73-11-1.47-.16.12-2q3.58.21,7.16.54c5,.47,7.84,3.28,7.19,8.15-.83,6.14-4.63,7.88-8.51,7.52q-3.44-.32-6.89-.52Zm4.54,0,2.5.22c2.73.26,4.67-1.46,5.11-5.22.5-4.23-1.61-5.67-4.41-5.92L169,3.3Z"/><path class="d" d="M179.56,18l.26-1.9.81,0c.42,0,.73-.09.8-.55L183,4.67l-1.46-.28.28-2q6,.83,11.86,2L193,8.23l-2.62-.33.17-.93c.08-.44.08-.73-.61-.86q-1.89-.34-3.79-.64l-.64,4q2.91.47,5.8,1l-.45,2.37q-2.86-.54-5.74-1l-.7,4.37q2,.32,3.92.67c.63.11.73-.15.82-.62l.21-1.16,2.47.64L191,19.87Q185.29,18.76,179.56,18Z"/><path class="d" d="M201.61,17.72c.36-1.45-.94-2.21-2.56-3-2.29-1.18-4.39-2.58-3.78-5.55s3.35-4.06,6.91-3.22A11.94,11.94,0,0,1,206.76,8l-.89,3.43-2.6-.49.33-1.33c.11-.44.08-.64-.35-.89a6.58,6.58,0,0,0-1.61-.58c-1.5-.35-2.8-.06-3.11,1.37s1.05,2.14,2.79,3.12c2.11,1.21,4.23,2.77,3.45,5.72s-3.7,4-7,3.25a12.15,12.15,0,0,1-4.62-2l.76-3.66,2.53.37-.31,1.41c-.1.44-.06.64.34.87a6.7,6.7,0,0,0,1.69.6C199.77,19.6,201.19,19.44,201.61,17.72Z"/><path class="d" d="M210.27,10.43,208.85,10,209.37,8q3.08.84,6.15,1.76L215,11.62l-.85-.18c-.44-.08-.78,0-.94.51l-3.08,10.46,1.34.47-.58,1.93q-2.85-.86-5.71-1.63l.5-1.85.81.15c.47.08.74,0,.9-.56Z"/><path class="d" d="M225.2,28.41a11.11,11.11,0,0,1-5.86-.53c-4.19-1.46-6.06-4.76-4.45-10,1.79-5.87,6.84-6.44,10.47-5.14a13,13,0,0,1,4.55,2.7l-1.43,3.76-2.54-.77.63-1.73c.15-.42.15-.63-.25-.92a7.37,7.37,0,0,0-1.77-.83c-3.33-1.17-5.47.39-6.56,3.74-1.15,3.53-.61,6.06,2.24,7.05a6.27,6.27,0,0,0,2.68.36l1.21-3.31h0L222.28,22l.67-1.89q3,1.07,6,2.23l-.69,1.76-.56-.17c-.52-.15-.77-.07-1,.46Z"/><path class="d" d="M228,28.75l.86.27a.58.58,0,0,0,.85-.37l4.13-10.19-1.37-.63L233.2,16q2.23.89,4.44,1.82Q239,24.25,240,30.69l0,0,3.69-8-1.56-.8.83-1.83q3,1.35,5.92,2.79l-.84,1.72-.89-.36a.63.63,0,0,0-.89.38l-5.64,11.72L238,35.15q-.95-6.51-2.28-13.06l0,0-3.47,8.24,1.47.7-.8,1.85q-2.79-1.2-5.61-2.32Z"/><path class="c" d="M181,79.42l7.26,10.23L112,143.76l-7.26-10.23L181,79.42m.68-4-81,57.45,10.6,14.94,81-57.45L181.66,75.39Z"/><rect class="c" x="99.48" y="110.7" width="99.27" height="9.21" transform="translate(-39.22 107.59) rotate(-35.37)"/><path class="c" d="M97.76,138.47,105,148.7l-1.48,1a3.48,3.48,0,0,1-4.85-.82l-3.23-4.56a3.48,3.48,0,0,1,.82-4.85l1.48-1m.68-4-3.83,2.72A6.37,6.37,0,0,0,93.1,146l3.23,4.56a6.37,6.37,0,0,0,8.88,1.51l3.83-2.72-10.6-14.94Z"/><path class="c" d="M201.32,72l-7.66,12-5.77-8.13L201.32,72m6.55-4.92L183.19,74.3l10.6,14.94,14.08-22.13Z"/><path class="c" d="M118.83,79.41l76.24,54.11-7.26,10.23L111.56,89.65l7.26-10.23m-.68-4L107.54,90.33l81,57.45,10.6-14.94-81-57.45Z"/><path class="c" d="M197,133.31,117.61,77l-5.33,7.51,80.34,57C194.05,138.76,195.63,136.09,197,133.31Z"/><path class="c" d="M199,136.66l1.48,1a3.48,3.48,0,0,1,.82,4.85l-3.24,4.56a3.48,3.48,0,0,1-4.85.82l-1.48-1L199,136.66m-.68-4-10.6,14.94,3.83,2.72a6.37,6.37,0,0,0,8.88-1.51l3.24-4.56a6.37,6.37,0,0,0-1.51-8.88l-3.83-2.72Z"/><path class="c" d="M102.4,73.24a1.73,1.73,0,0,1,.48.07l9,2.63-5.77,8.13-5.19-8.17a1.73,1.73,0,0,1,1.46-2.66m0-2.89a4.62,4.62,0,0,0-3.9,7.1L106,89.24l10.6-14.94-12.91-3.76a4.61,4.61,0,0,0-1.29-.18Z"/><line class="e" x1="99.71" y1="72.86" x2="95.73" y2="70.26"/><line class="f" x1="113.18" y1="110.68" x2="76.04" y2="110.68"/><line class="f" x1="227.34" y1="110.68" x2="190.19" y2="110.68"/><rect class="c" x="145.41" y="137.22" width="9" height="9" transform="translate(-56.3 147.49) rotate(-44.99)"/></svg>