<svg xmlns="http://www.w3.org/2000/svg" xmlns:xlink="http://www.w3.org/1999/xlink" viewBox="0 0 1920 1920"><defs><style>.a{fill:none;}.b{opacity:0.25;}.c{fill:url(#a);}.d{clip-path:url(#b);}.e{fill:url(#c);}.f{fill:url(#d);}.g{fill:url(#e);}.h{fill:url(#f);}.i{fill:url(#g);}.j{fill:url(#h);}.k{fill:#e2d7d4;}.l{fill:url(#i);}.m{fill:url(#j);}.n{fill:url(#k);}.o{fill:url(#l);}.p{fill:url(#m);}.q{fill:url(#n);}.r{fill:url(#o);}.s{fill:url(#p);}.t{fill:#5b4448;}.u{fill:url(#q);}.v{fill:url(#r);}.w{fill:url(#s);}.x{fill:url(#t);}.y{fill:#45414e;}.z{fill:#514457;}.aa{fill:url(#u);}.ab{fill:url(#v);}.ac{fill:url(#w);}.ad{fill:url(#x);}.ae{fill:#353535;}.af{fill:url(#y);}.ag{fill:#d2bccb;}.ah{fill:url(#z);}.ai{fill:url(#aa);}.aj,.al,.cg{fill:#78546b;stroke-miterlimit:10;}.aj{stroke:url(#ab);}.ak{fill:url(#ac);}.al{stroke:url(#ad);}.am{fill:#272738;}.an{fill:#be95b1;}.ao{fill:url(#ae);}.ap{fill:#c79db0;}.aq{fill:url(#af);}.ar{fill:url(#ag);}.as{fill:url(#ah);}.at{fill:url(#ai);}.au{fill:url(#aj);}.av{fill:url(#ak);}.aw{fill:url(#al);}.ax{fill:url(#am);}.ay{fill:url(#an);}.az{fill:url(#ao);}.ba{fill:url(#ap);}.bb{fill:url(#aq);}.bc{fill:url(#ar);}.bd{fill:url(#as);}.be{fill:url(#at);}.bf{fill:url(#au);}.bg{fill:url(#av);}.bh{fill:#3d4c7c;}.bi{fill:url(#aw);}.bj{fill:url(#ax);}.bk{fill:url(#ay);}.bl{fill:url(#az);}.bm{fill:url(#ba);}.bn{fill:#191926;}.bo{fill:url(#bb);}.bp{fill:url(#bc);}.bq{fill:url(#bd);}.br{fill:url(#be);}.bs{fill:url(#bf);}.bt{fill:#b66f69;}.bu{fill:url(#bg);}.bv{fill:url(#bh);}.bw{fill:#b5cbdd;}.bx{fill:url(#bi);}.by{fill:url(#bj);}.bz{fill:url(#bk);}.ca{fill:#cbd5df;}.cb{fill:url(#bl);}.cc{fill:url(#bm);}.cd{fill:url(#bn);}.ce{fill:url(#bo);}.cf{fill:url(#bp);}.cg{stroke:url(#bq);}.ch{fill:url(#br);}.ci{fill:url(#bs);}.cj{fill:#ead3e4;}.ck{fill:url(#bt);}.cl{fill:url(#bu);}.cm{fill:url(#bv);}.cn{fill:url(#bw);}.co{fill:url(#bx);}.cp{fill:url(#by);}.cq{fill:url(#bz);}.cr{fill:url(#ca);}.cs{fill:url(#cb);}.ct{fill:url(#cc);}.cu{fill:url(#cd);}.cv{fill:url(#ce);}.cw{fill:url(#cf);}.cx{fill:url(#cg);}.cy{fill:url(#ch);}.cz{fill:url(#ci);}.da{fill:url(#cj);}.db{fill:url(#ck);}.dc{fill:url(#cl);}.dd{fill:url(#cm);}.de{fill:url(#cn);}.df{fill:url(#co);}.dg{fill:url(#cp);}.dh{fill:url(#cq);}.di{fill:url(#cr);}.dj{fill:url(#cs);}.dk{fill:url(#ct);}.dl{fill:url(#cu);}.dm{fill:url(#cv);}</style><linearGradient id="a" x1="960" y1="1484.46" x2="960" y2="-18.32" gradientUnits="userSpaceOnUse"><stop offset="0" stop-color="#6b77a1"/><stop offset="0.03" stop-color="#737ea5"/><stop offset="0.15" stop-color="#9599b3"/><stop offset="0.28" stop-color="#b1b0bf"/><stop offset="0.41" stop-color="#c7c1c8"/><stop offset="0.57" stop-color="#d6cdcf"/><stop offset="0.74" stop-color="#dfd5d3"/><stop offset="1" stop-color="#e2d7d4"/></linearGradient><clipPath id="b"><rect class="a" x="-8.98" y="-14.34" width="1937.95" height="1942.78"/></clipPath><linearGradient id="c" x1="708.29" y1="1033.98" x2="708.29" y2="1319.81" gradientUnits="userSpaceOnUse"><stop offset="0" stop-color="#e5d3cf"/><stop offset="0.4" stop-color="#e3d1cd"/><stop offset="0.56" stop-color="#decac8"/><stop offset="0.68" stop-color="#d4bebe"/><stop offset="0.78" stop-color="#c6acb0"/><stop offset="0.86" stop-color="#b3969e"/><stop offset="0.94" stop-color="#9d7a88"/><stop offset="1" stop-color="#845b6f"/></linearGradient><linearGradient id="d" x1="811.06" y1="1033.18" x2="811.06" y2="1322.52" gradientUnits="userSpaceOnUse"><stop offset="0" stop-color="#e2d7d4"/><stop offset="0.35" stop-color="#e1d4d2"/><stop offset="0.57" stop-color="#ddcccd"/><stop offset="0.76" stop-color="#d6bdc4"/><stop offset="0.93" stop-color="#cca8b7"/><stop offset="1" stop-color="#c79db0"/></linearGradient><linearGradient id="e" x1="854.34" y1="1074.35" x2="854.34" y2="1386.1" gradientUnits="userSpaceOnUse"><stop offset="0" stop-color="#b66f69"/><stop offset="0.23" stop-color="#a76665"/><stop offset="1" stop-color="#774b57"/></linearGradient><linearGradient id="f" x1="1128.12" y1="1260.36" x2="1227.55" y2="1260.36" gradientUnits="userSpaceOnUse"><stop offset="0" stop-color="#a96b60"/><stop offset="0.11" stop-color="#a3685e"/><stop offset="1" stop-color="#734e51"/></linearGradient><linearGradient id="g" x1="1126.72" y1="1414.61" x2="1227.55" y2="1414.61" gradientUnits="userSpaceOnUse"><stop offset="0" stop-color="#5b4448"/><stop offset="1" stop-color="#443337"/></linearGradient><linearGradient id="h" x1="1008.51" y1="1186.66" x2="942.85" y2="1224.57" gradientUnits="userSpaceOnUse"><stop offset="0" stop-color="#d5b8be"/><stop offset="0.33" stop-color="#d3b6bc"/><stop offset="0.52" stop-color="#ccaeb5"/><stop offset="0.67" stop-color="#c0a0a9"/><stop offset="0.8" stop-color="#af8c99"/><stop offset="0.91" stop-color="#997383"/><stop offset="1" stop-color="#845b6f"/></linearGradient><linearGradient id="i" x1="1013.03" y1="1279.68" x2="1080.52" y2="1279.68" xlink:href="#f"/><linearGradient id="j" x1="962.8" y1="1142.95" x2="1013.03" y2="1142.95" gradientUnits="userSpaceOnUse"><stop offset="0" stop-color="#845b6f"/><stop offset="0.09" stop-color="#997383"/><stop offset="0.2" stop-color="#af8c99"/><stop offset="0.33" stop-color="#c0a0a9"/><stop offset="0.48" stop-color="#ccaeb5"/><stop offset="0.67" stop-color="#d3b6bc"/><stop offset="1" stop-color="#d5b8be"/></linearGradient><linearGradient id="k" x1="1002.78" y1="1143.55" x2="1037.74" y2="1143.55" xlink:href="#d"/><linearGradient id="l" x1="1019.05" y1="1126.68" x2="1044.97" y2="1126.68" xlink:href="#j"/><linearGradient id="m" x1="1013.03" y1="1221.59" x2="1079.31" y2="1221.59" xlink:href="#e"/><linearGradient id="n" x1="1037.74" y1="1123.06" x2="1109.44" y2="1123.06" xlink:href="#d"/><linearGradient id="o" x1="1107.64" y1="1136.02" x2="1176.33" y2="1136.02" xlink:href="#d"/><linearGradient id="p" x1="1073.59" y1="1098.66" x2="1073.59" y2="1173.38" xlink:href="#h"/><linearGradient id="q" x1="1079.31" y1="1213.45" x2="1176.33" y2="1213.45" xlink:href="#g"/><linearGradient id="r" x1="1393.52" y1="1123.01" x2="1324.42" y2="1192.11" xlink:href="#h"/><linearGradient id="s" x1="1172.72" y1="1215.96" x2="1368.96" y2="1215.96" xlink:href="#g"/><linearGradient id="t" x1="1478.44" y1="1100.46" x2="1478.44" y2="1380.07" gradientUnits="userSpaceOnUse"><stop offset="0" stop-color="#e2d7d4"/><stop offset="1" stop-color="#e5d3cf"/></linearGradient><linearGradient id="u" x1="906.33" y1="1397.25" x2="1024.28" y2="1397.25" xlink:href="#g"/><linearGradient id="v" x1="453.02" y1="1225.4" x2="572.73" y2="1225.4" xlink:href="#d"/><linearGradient id="w" x1="383.11" y1="1227.01" x2="514.88" y2="1227.01" xlink:href="#c"/><linearGradient id="x" x1="235.68" y1="1299.92" x2="383.11" y2="1299.92" xlink:href="#d"/><linearGradient id="y" x1="499.31" y1="1389.41" x2="426.4" y2="1462.32" gradientUnits="userSpaceOnUse"><stop offset="0" stop-color="#774b57"/><stop offset="0.77" stop-color="#a76665"/><stop offset="1" stop-color="#b66f69"/></linearGradient><linearGradient id="z" x1="718.96" y1="1595.8" x2="822.61" y2="1595.8" gradientUnits="userSpaceOnUse"><stop offset="0" stop-color="#a77d9e"/><stop offset="0.41" stop-color="#a47b9b"/><stop offset="0.67" stop-color="#9c7593"/><stop offset="0.9" stop-color="#8d6b85"/><stop offset="1" stop-color="#83647b"/></linearGradient><linearGradient id="aa" x1="768.85" y1="1476.06" x2="879.54" y2="1667.78" gradientUnits="userSpaceOnUse"><stop offset="0" stop-color="#be95b1"/><stop offset="0.34" stop-color="#bb93af"/><stop offset="0.57" stop-color="#b38ca7"/><stop offset="0.76" stop-color="#a47f99"/><stop offset="0.93" stop-color="#8f6e86"/><stop offset="1" stop-color="#83647b"/></linearGradient><linearGradient id="ab" x1="705.15" y1="1652.73" x2="823.42" y2="1652.73" gradientUnits="userSpaceOnUse"><stop offset="0" stop-color="#78546b"/><stop offset="0.11" stop-color="#7b5970"/><stop offset="0.46" stop-color="#816178"/><stop offset="1" stop-color="#83647b"/></linearGradient><linearGradient id="ac" x1="749.69" y1="1700.65" x2="749.69" y2="1888.66" gradientUnits="userSpaceOnUse"><stop offset="0" stop-color="#845b6f"/><stop offset="1" stop-color="#83647b"/></linearGradient><linearGradient id="ad" x1="592.66" y1="1815.11" x2="706.58" y2="1815.11" gradientUnits="userSpaceOnUse"><stop offset="0" stop-color="#83647b"/><stop offset="0.54" stop-color="#816178"/><stop offset="0.89" stop-color="#7b5970"/><stop offset="1" stop-color="#78546b"/></linearGradient><linearGradient id="ae" x1="1438.87" y1="1284.66" x2="1587.91" y2="1284.66" gradientUnits="userSpaceOnUse"><stop offset="0" stop-color="#d1b7bc"/><stop offset="1" stop-color="#e5d3cf"/></linearGradient><linearGradient id="af" x1="1565.11" y1="1299.81" x2="1663.6" y2="1317.17" gradientUnits="userSpaceOnUse"><stop offset="0" stop-color="#845b6f"/><stop offset="0.07" stop-color="#916c7c"/><stop offset="0.26" stop-color="#af919a"/><stop offset="0.45" stop-color="#c7aeb1"/><stop offset="0.64" stop-color="#d8c2c2"/><stop offset="0.82" stop-color="#e2cfcc"/><stop offset="1" stop-color="#e5d3cf"/></linearGradient><linearGradient id="ag" x1="1672.27" y1="1286.37" x2="1766.28" y2="1286.37" xlink:href="#c"/><linearGradient id="ah" x1="1742.77" y1="1286.37" x2="1784.35" y2="1286.37" xlink:href="#d"/><linearGradient id="ai" x1="1508.77" y1="1499.18" x2="1660.82" y2="1499.18" xlink:href="#t"/><linearGradient id="aj" x1="1587.91" y1="1327.45" x2="1719.06" y2="1327.45" xlink:href="#g"/><linearGradient id="ak" x1="1672.27" y1="1349.54" x2="1838.99" y2="1349.54" xlink:href="#g"/><linearGradient id="al" x1="1718.47" y1="1470.06" x2="1833.36" y2="1470.06" xlink:href="#c"/><linearGradient id="am" x1="1838.31" y1="1427.96" x2="1889.76" y2="1427.96" xlink:href="#e"/><linearGradient id="an" x1="1825.53" y1="1415.22" x2="1765.27" y2="1475.48" gradientUnits="userSpaceOnUse"><stop offset="0" stop-color="#e5d3cf"/><stop offset="0.18" stop-color="#e2cfcc"/><stop offset="0.36" stop-color="#d8c2c2"/><stop offset="0.55" stop-color="#c7aeb1"/><stop offset="0.74" stop-color="#af919a"/><stop offset="0.93" stop-color="#916c7c"/><stop offset="1" stop-color="#845b6f"/></linearGradient><linearGradient id="ao" x1="151.31" y1="1335.48" x2="235.68" y2="1335.48" xlink:href="#d"/><linearGradient id="ap" x1="151.31" y1="1382.48" x2="235.68" y2="1382.48" xlink:href="#h"/><linearGradient id="aq" x1="228.45" y1="1430.36" x2="362.22" y2="1430.36" xlink:href="#e"/><linearGradient id="ar" x1="-6.57" y1="1422.85" x2="159.75" y2="1422.85" xlink:href="#c"/><linearGradient id="as" x1="151.31" y1="1422.85" x2="229.65" y2="1422.85" xlink:href="#c"/><linearGradient id="at" x1="-7.77" y1="1526.5" x2="159.75" y2="1526.5" gradientUnits="userSpaceOnUse"><stop offset="0" stop-color="#464376"/><stop offset="1" stop-color="#3b3b66"/></linearGradient><linearGradient id="au" x1="124.2" y1="1714.51" x2="256.77" y2="1581.94" gradientUnits="userSpaceOnUse"><stop offset="0" stop-color="#423e5d"/><stop offset="1" stop-color="#302d51"/></linearGradient><linearGradient id="av" x1="229.65" y1="1589.57" x2="511.27" y2="1589.57" gradientUnits="userSpaceOnUse"><stop offset="0" stop-color="#4e5189"/><stop offset="1" stop-color="#46436c"/></linearGradient><linearGradient id="aw" x1="361.02" y1="1809.72" x2="593.62" y2="1809.72" xlink:href="#au"/><linearGradient id="ax" x1="361.02" y1="1865.16" x2="596.26" y2="1865.16" gradientUnits="userSpaceOnUse"><stop offset="0" stop-color="#36364c"/><stop offset="1" stop-color="#272738"/></linearGradient><linearGradient id="ay" x1="-7.77" y1="1731.38" x2="305.98" y2="1731.38" xlink:href="#av"/><linearGradient id="az" x1="255.36" y1="1789.23" x2="361.02" y2="1789.23" xlink:href="#av"/><linearGradient id="ba" x1="305.98" y1="1863.96" x2="571.93" y2="1863.96" xlink:href="#au"/><linearGradient id="bb" x1="302.38" y1="1936.97" x2="571.93" y2="1936.97" gradientUnits="userSpaceOnUse"><stop offset="0" stop-color="#46436c"/><stop offset="1" stop-color="#4e5189"/></linearGradient><linearGradient id="bc" x1="1766.28" y1="1321.32" x2="1841.6" y2="1321.32" xlink:href="#f"/><linearGradient id="bd" x1="1784.35" y1="1308.56" x2="1846.22" y2="1308.56" xlink:href="#c"/><linearGradient id="be" x1="1840.6" y1="1306.96" x2="1921.75" y2="1306.96" xlink:href="#d"/><linearGradient id="bf" x1="1840.6" y1="1370.63" x2="1921.75" y2="1370.63" xlink:href="#f"/><linearGradient id="bg" x1="923.77" y1="1830.32" x2="1032.29" y2="2018.28" gradientUnits="userSpaceOnUse"><stop offset="0" stop-color="#445d9b"/><stop offset="0.01" stop-color="#455f9c"/><stop offset="0.16" stop-color="#5271a6"/><stop offset="0.33" stop-color="#5b7ead"/><stop offset="0.55" stop-color="#6086b1"/><stop offset="1" stop-color="#6288b2"/></linearGradient><linearGradient id="bh" x1="903.05" y1="1900.41" x2="693.95" y2="2109.51" gradientUnits="userSpaceOnUse"><stop offset="0" stop-color="#445d9b"/><stop offset="0.48" stop-color="#4e74a9"/><stop offset="1" stop-color="#5889b5"/></linearGradient><linearGradient id="bi" x1="1646.16" y1="1992.31" x2="1922.95" y2="1992.31" gradientUnits="userSpaceOnUse"><stop offset="0" stop-color="#90a5c0"/><stop offset="0.49" stop-color="#8ea3bf"/><stop offset="0.69" stop-color="#899cba"/><stop offset="0.84" stop-color="#7f90b2"/><stop offset="0.96" stop-color="#717ea6"/><stop offset="1" stop-color="#6b77a1"/></linearGradient><linearGradient id="bj" x1="869.21" y1="1318.61" x2="869.21" y2="1537.95" xlink:href="#f"/><linearGradient id="bk" x1="1027.09" y1="1364.4" x2="1027.09" y2="1537.95" gradientUnits="userSpaceOnUse"><stop offset="0" stop-color="#b3bad0"/><stop offset="0.17" stop-color="#a9b3cc"/><stop offset="1" stop-color="#7995b7"/></linearGradient><linearGradient id="bl" x1="1205.56" y1="1086.61" x2="1205.56" y2="1182.42" xlink:href="#c"/><linearGradient id="bm" x1="1270.84" y1="1116.13" x2="1270.84" y2="1236.65" xlink:href="#c"/><linearGradient id="bn" x1="1169.7" y1="1436.82" x2="1336.02" y2="1436.82" xlink:href="#e"/><linearGradient id="bo" x1="1172.92" y1="1261.51" x2="1289.42" y2="1261.51" xlink:href="#y"/><linearGradient id="bp" x1="350.17" y1="1434.3" x2="424.89" y2="1434.3" xlink:href="#f"/><linearGradient id="bq" x1="821.44" y1="1891.82" x2="821.44" y2="1583.95" xlink:href="#ad"/><linearGradient id="br" x1="544.21" y1="1623.12" x2="544.21" y2="1877.82" gradientUnits="userSpaceOnUse"><stop offset="0" stop-color="#a77d9e"/><stop offset="0.47" stop-color="#94708c"/><stop offset="1" stop-color="#83647b"/></linearGradient><linearGradient id="bs" x1="424.89" y1="1601.83" x2="705.7" y2="1601.83" xlink:href="#z"/><linearGradient id="bt" x1="588.8" y1="1750.67" x2="705.7" y2="1750.67" xlink:href="#z"/><linearGradient id="bu" x1="150.31" y1="1988.69" x2="150.31" y2="1803.09" xlink:href="#au"/><linearGradient id="bv" x1="-13.8" y1="1937" x2="336.91" y2="1937" xlink:href="#av"/><linearGradient id="bw" x1="1368.96" y1="1308.36" x2="1587.91" y2="1308.36" xlink:href="#g"/><linearGradient id="bx" x1="1461.96" y1="1408.99" x2="1461.96" y2="1630.75" xlink:href="#bi"/><linearGradient id="by" x1="1297.65" y1="1388.21" x2="1508.77" y2="1388.21" xlink:href="#g"/><linearGradient id="bz" x1="1297.65" y1="1486.03" x2="1587.91" y2="1486.03" xlink:href="#y"/><linearGradient id="ca" x1="1140.38" y1="1435.51" x2="932.68" y2="1643.2" gradientUnits="userSpaceOnUse"><stop offset="0" stop-color="#564646"/><stop offset="0.25" stop-color="#5e4a4e"/><stop offset="0.65" stop-color="#755565"/><stop offset="1" stop-color="#8e617e"/></linearGradient><linearGradient id="cb" x1="1585.9" y1="1700.45" x2="1761.05" y2="1700.45" gradientUnits="userSpaceOnUse"><stop offset="0" stop-color="#845b6f"/><stop offset="0.06" stop-color="#9d7a88"/><stop offset="0.14" stop-color="#b3969e"/><stop offset="0.22" stop-color="#c6acb0"/><stop offset="0.32" stop-color="#d4bebe"/><stop offset="0.44" stop-color="#decac8"/><stop offset="0.6" stop-color="#e3d1cd"/><stop offset="1" stop-color="#e5d3cf"/></linearGradient><linearGradient id="cc" x1="1660.82" y1="1700.45" x2="1836.58" y2="1700.45" xlink:href="#g"/><linearGradient id="cd" x1="1508.77" y1="1471.46" x2="1660.82" y2="1471.46" xlink:href="#af"/><linearGradient id="ce" x1="1589.11" y1="1476.79" x2="1732.13" y2="1476.79" xlink:href="#e"/><linearGradient id="cf" x1="1288.82" y1="1534.13" x2="1171.11" y2="1651.84" xlink:href="#bk"/><linearGradient id="cg" x1="1349.28" y1="1754.89" x2="1761.05" y2="1754.89" xlink:href="#bi"/><linearGradient id="ch" x1="676.78" y1="1789.84" x2="980.49" y2="1789.84" xlink:href="#av"/><linearGradient id="ci" x1="862.38" y1="1778.39" x2="993.75" y2="1778.39" gradientUnits="userSpaceOnUse"><stop offset="0" stop-color="#6b77a1"/><stop offset="1" stop-color="#5a5a82"/></linearGradient><linearGradient id="cj" x1="1088.35" y1="1811.53" x2="1088.35" y2="1668.11" gradientUnits="userSpaceOnUse"><stop offset="0" stop-color="#90a5c0"/><stop offset="1" stop-color="#6b77a1"/></linearGradient><linearGradient id="ck" x1="993.75" y1="1809.92" x2="1227.57" y2="1809.92" gradientUnits="userSpaceOnUse"><stop offset="0" stop-color="#6288b2"/><stop offset="0.01" stop-color="#6288b2"/><stop offset="0.33" stop-color="#5a89b4"/><stop offset="1" stop-color="#5889b5"/></linearGradient><linearGradient id="cl" x1="1196.22" y1="1728.58" x2="1439.67" y2="1728.58" gradientUnits="userSpaceOnUse"><stop offset="0" stop-color="#7094be"/><stop offset="0" stop-color="#7094be"/><stop offset="0.2" stop-color="#75a1c3"/><stop offset="0.46" stop-color="#78a9c6"/><stop offset="1" stop-color="#79abc7"/></linearGradient><linearGradient id="cm" x1="1176.54" y1="1902.32" x2="1327.98" y2="1750.87" gradientUnits="userSpaceOnUse"><stop offset="0" stop-color="#79abc7"/><stop offset="0.92" stop-color="#7196bf"/><stop offset="1" stop-color="#7094be"/></linearGradient><linearGradient id="cn" x1="993.75" y1="1916.98" x2="1226.95" y2="1916.98" xlink:href="#cl"/><linearGradient id="co" x1="1087.95" y1="1532.33" x2="1087.95" y2="1691.01" xlink:href="#ci"/><linearGradient id="cp" x1="1355.2" y1="2025.68" x2="1446.95" y2="1866.76" gradientUnits="userSpaceOnUse"><stop offset="0" stop-color="#90a5c0"/><stop offset="0.37" stop-color="#7d8db0"/><stop offset="0.72" stop-color="#707da5"/><stop offset="1" stop-color="#6b77a1"/></linearGradient><linearGradient id="cq" x1="1731.58" y1="1638.38" x2="1834.17" y2="1638.38" xlink:href="#g"/><linearGradient id="cr" x1="1833.36" y1="1580.54" x2="1923.35" y2="1580.54" xlink:href="#f"/><linearGradient id="cs" x1="1834.17" y1="1739.63" x2="1923.35" y2="1739.63" xlink:href="#g"/><linearGradient id="ct" x1="1761.05" y1="1779.39" x2="1923.35" y2="1779.39" xlink:href="#f"/><linearGradient id="cu" x1="1169.7" y1="1384.49" x2="1368.96" y2="1384.49" xlink:href="#g"/><linearGradient id="cv" x1="549.03" y1="1238.66" x2="774.25" y2="1463.88" xlink:href="#g"/></defs><title>mountains</title><g class="b"><rect class="c" x="-5.39" y="-18.32" width="1930.79" height="1502.78"/><g class="d"><polygon class="e" points="639.68 1178.61 751.33 1033.98 776.91 1319.81 639.68 1178.61"/><polygon class="f" points="749.69 1033.18 872.42 1074.35 775.3 1322.52 749.69 1033.18"/><polygon class="g" points="872.42 1074.35 776.81 1318.61 931.88 1386.1 872.42 1074.35"/><polygon class="h" points="1172.92 1180.41 1128.13 1296.31 1227.55 1340.3 1172.92 1180.41"/><polygon class="i" points="1126.72 1294.9 1169.7 1534.33 1227.55 1340.3 1126.72 1294.9"/><polygon class="j" points="1013.03 1194.48 872.42 1077.17 955.98 1235.46 1024.28 1365.61 1013.03 1194.48"/><polygon class="k" points="1017.45 1197.68 942.73 1071.54 876.84 1080.38 1017.45 1197.68"/><polygon class="l" points="1013.03 1193.27 1023.67 1366.08 1080.52 1295.31 1013.03 1193.27"/><polygon class="m" points="962.8 1106.01 1002.78 1093.84 1013.03 1192.06 962.8 1106.01"/><polygon class="n" points="1002.78 1093.84 1037.73 1147.47 1013.03 1193.27 1002.78 1093.84"/><polygon class="o" points="1019.05 1118.54 1044.97 1105.89 1037.73 1147.47 1019.05 1118.54"/><polygon class="p" points="1037.73 1147.47 1079.31 1295.71 1013.03 1193.27 1037.73 1147.47"/><polygon class="q" points="1044.97 1105.89 1109.44 1098.66 1037.73 1147.47 1044.97 1105.89"/><polygon class="r" points="1109.44 1098.66 1176.33 1131.2 1107.64 1173.38 1109.44 1098.66"/><polygon class="s" points="1037.73 1147.47 1107.64 1173.38 1109.44 1098.66 1037.73 1147.47"/><polygon class="t" points="1037.73 1147.47 1079.04 1297.15 1109.85 1173.59 1037.73 1147.47"/><polygon class="u" points="1107.64 1173.38 1176.33 1131.2 1079.31 1295.71 1107.64 1173.38"/><polygon class="k" points="1311.32 1116.13 1236.59 1088.41 1172.72 1182.42 1311.32 1116.13"/><polygon class="v" points="1311.32 1116.13 1370.97 1100.46 1368.96 1236.65 1311.32 1116.13"/><polygon class="w" points="1172.72 1182.42 1368.96 1236.65 1289.42 1249.51 1172.72 1182.42"/><polygon class="x" points="1370.97 1100.46 1587.91 1380.07 1368.96 1236.65 1370.97 1100.46"/><polygon class="y" points="639.65 1177.82 639.65 1177.82 595.43 1176.99 739.85 1364.4 639.65 1177.82"/><polygon class="z" points="595.73 1176.99 571.15 1232.17 747.89 1371.03 595.73 1176.99"/><polygon class="z" points="910.19 1589.37 961.61 1537.95 968.03 1584.55 910.19 1589.37"/><polygon class="aa" points="1024.28 1364.4 906.33 1256.55 961.61 1537.95 1024.28 1364.4"/><polygon class="y" points="511.67 1268.59 743.7 1491.33 592.82 1485.33 511.67 1268.59"/><polygon class="t" points="872.42 1075.96 906.97 1259.96 1024.28 1364.4 872.42 1075.96"/><polygon class="ab" points="572.73 1231.03 453.01 1178 514.88 1272.81 572.73 1231.03"/><polygon class="ac" points="383.11 1276.02 514.88 1272.81 453.01 1178 383.11 1276.02"/><polygon class="z" points="383.11 1276.02 593.62 1486.53 514.88 1272.81 383.11 1276.02"/><polygon class="t" points="514.88 1272.81 740.96 1364.7 570.95 1230.24 514.88 1272.81"/><polygon class="ad" points="383.11 1276.02 332.09 1257.14 235.68 1342.71 383.11 1276.02"/><polygon class="t" points="593.62 1483.72 350.17 1349.94 383.11 1276.02 593.62 1483.72"/><polygon class="ae" points="235.68 1342.71 350.17 1349.94 383.11 1276.02 235.68 1342.71"/><polygon class="t" points="235.68 1342.71 362.22 1518.67 350.82 1348.5 235.68 1342.71"/><polygon class="af" points="593.62 1483.72 424.89 1460.82 350.17 1349.94 593.62 1483.72"/><polygon class="ag" points="599.65 1552.41 593.62 1483.72 424.89 1460.82 599.65 1552.41"/><polygon class="ag" points="743.07 1490.95 718.96 1563.26 593.62 1483.72 743.07 1490.95"/><polygon class="t" points="743.07 1490.95 910.19 1589.37 739.85 1364.4 743.07 1490.95"/><polygon class="ah" points="718.96 1563.26 822.61 1700.65 743.07 1490.95 718.96 1563.26"/><polygon class="ai" points="910.19 1589.37 743.07 1490.95 822.61 1700.65 910.19 1589.37"/><polygon class="aj" points="705.7 1742.83 822.61 1700.65 718.96 1563.26 705.7 1742.83"/><polygon class="ak" points="705.7 1742.83 676.78 1888.66 822.61 1700.65 705.7 1742.83"/><polygon class="al" points="593.62 1877.82 705.7 1742.83 676.78 1888.66 593.62 1877.82"/><polygon class="am" points="593.62 1877.82 571.93 1987.49 676.78 1888.66 593.62 1877.82"/><polygon class="an" points="424.89 1460.82 494.8 1648.83 588.8 1623.52 424.89 1460.82"/><polygon class="ao" points="1438.87 1189.25 1579.47 1226.21 1587.91 1380.07 1438.87 1189.25"/><polygon class="ap" points="1579.47 1226.21 1624.06 1218.57 1672.27 1267.99 1579.47 1226.21"/><polygon class="aq" points="1587.91 1380.07 1672.27 1267.99 1578.14 1225.86 1587.91 1380.07"/><polygon class="ar" points="1672.27 1267.99 1742.78 1248.1 1766.28 1324.63 1672.27 1267.99"/><polygon class="as" points="1784.35 1273.41 1766.28 1324.63 1742.78 1248.1 1784.35 1273.41"/><polygon class="at" points="1587.91 1630.75 1660.82 1575.31 1508.77 1367.62 1587.91 1630.75"/><polygon class="au" points="1672.27 1267.99 1719.06 1386.91 1587.91 1378.26 1672.27 1267.99"/><polygon class="av" points="1766.28 1324.63 1838.99 1431.09 1672.27 1267.99 1766.28 1324.63"/><polygon class="aw" points="1718.47 1386.1 1833.36 1543.58 1732.13 1554.02 1718.47 1386.1"/><polygon class="t" points="1766.28 1324.63 1841.6 1369.22 1838.99 1431.09 1766.28 1324.63"/><polygon class="ax" points="1840.4 1365.41 1889.76 1490.5 1838.31 1428.57 1840.4 1365.41"/><polygon class="t" points="1672.27 1267.99 1718.47 1386.1 1839.19 1428.88 1672.27 1267.99"/><polygon class="ay" points="1718.47 1386.1 1833.36 1543.58 1839.19 1428.88 1718.47 1386.1"/><polygon class="az" points="235.68 1342.71 206.75 1310.17 151.31 1360.79 235.68 1342.71"/><polygon class="ba" points="229.65 1422.25 235.68 1342.71 151.31 1360.79 229.65 1422.25"/><polygon class="bb" points="362.22 1518.67 235.1 1342.06 228.45 1422.65 362.22 1518.67"/><polygon class="am" points="494.8 1648.83 229.65 1422.25 362.22 1518.67 494.8 1648.83"/><polygon class="bc" points="151.31 1360.79 -6.57 1470.46 159.75 1484.92 151.31 1360.79"/><polygon class="bd" points="229.65 1422.25 159.75 1484.92 151.31 1360.79 229.65 1422.25"/><polygon class="be" points="-6.57 1470.46 -7.77 1582.54 159.75 1484.92 -6.57 1470.46"/><polygon class="bf" points="159.75 1484.92 361.02 1741.63 -7.77 1582.54 159.75 1484.92"/><polygon class="am" points="229.65 1422.25 361.02 1741.63 159.75 1484.92 229.65 1422.25"/><polygon class="bg" points="511.27 1756.9 361.02 1743.24 229.65 1422.25 511.27 1756.9"/><polygon class="bh" points="494.8 1648.83 508.65 1756.09 229.65 1422.25 494.8 1648.83"/><polygon class="bi" points="361.02 1741.63 508.37 1753.9 593.62 1877.82 361.02 1741.63"/><polygon class="bj" points="361.02 1741.63 571.93 1988.69 596.26 1878.16 361.02 1741.63"/><polygon class="bk" points="255.36 1694.63 305.98 1880.23 -7.77 1582.54 255.36 1694.63"/><polygon class="bl" points="361.02 1741.63 304.98 1883.84 255.36 1694.63 361.02 1741.63"/><polygon class="bm" points="571.93 1987.49 305.98 1880.23 361.02 1740.42 571.93 1987.49"/><polygon class="bn" points="101.9 1803.09 -6.57 1992.91 -7.77 1582.54 101.9 1803.09"/><polygon class="bo" points="571.93 1987.49 302.38 1876.81 336.91 1997.13 571.93 1987.49"/><polygon class="bp" points="1784.35 1273.41 1841.6 1369.22 1766.28 1324.63 1784.35 1273.41"/><polygon class="bq" points="1846.22 1247.9 1841.6 1369.22 1784.35 1273.41 1846.22 1247.9"/><polygon class="br" points="1921.75 1252.72 1840.6 1366.01 1846.22 1247.9 1921.75 1252.72"/><polygon class="bs" points="1888 1488.54 1921.75 1252.72 1840.6 1366.01 1888 1488.54"/><polygon class="bt" points="1922.55 1564.46 1923.35 1674.54 1888 1486.53 1922.55 1564.46"/><polygon class="bt" points="1922.95 1945.31 1923.35 1804.71 1761.06 1825.59 1922.95 1945.31"/><polygon class="bu" points="862.38 1865.76 1025.08 2022.44 993.75 1809.72 862.38 1865.76"/><polygon class="bv" points="571.93 1987.49 1025.08 2022.44 862.38 1863.96 571.93 1987.49"/><polygon class="bw" points="1646.16 1914.78 1761.06 1825.59 1922.95 1945.31 1646.16 1914.78"/><polygon class="bx" points="1922.95 1945.31 1753.02 2069.84 1646.16 1914.78 1922.95 1945.31"/><polygon class="by" points="776.81 1318.61 961.61 1537.95 931.88 1386.1 776.81 1318.61"/><polygon class="t" points="961.61 1537.95 910.19 1589.37 776.81 1318.61 961.61 1537.95"/><polygon class="bz" points="1024.28 1364.4 961.61 1537.95 1092.57 1387.7 1024.28 1364.4"/><polygon class="ca" points="1092.57 1387.7 1172.92 1180.41 1024.28 1364.4 1092.57 1387.7"/><polygon class="bt" points="1176.33 1131.2 1172.92 1180.41 1079.31 1295.71 1176.33 1131.2"/><polygon class="cb" points="1176.33 1131.2 1238.4 1086.61 1172.72 1182.42 1176.33 1131.2"/><polygon class="cc" points="1172.72 1182.42 1311.32 1116.13 1368.96 1236.65 1172.72 1182.42"/><polygon class="cd" points="1298.06 1341.3 1336.02 1408.99 1169.7 1532.33 1298.06 1341.3"/><polygon class="t" points="1092.57 1387.7 1173.32 1541.96 1128.65 1294.61 1092.57 1387.7"/><polygon class="ce" points="1172.92 1180.41 1289.42 1249.51 1226.86 1342.61 1172.92 1180.41"/><polygon class="bt" points="1288.07 1248.71 1368.96 1236.65 1227.55 1340.3 1288.07 1248.71"/><polygon class="ae" points="739.85 1364.4 776.81 1318.61 639.65 1177.82 739.85 1364.4"/><polygon class="ae" points="738.85 1364.7 910.19 1589.37 776.81 1318 738.85 1364.7"/><polygon class="ag" points="362.22 1518.67 494.8 1648.83 424.89 1460.82 362.22 1518.67"/><polygon class="cf" points="350.17 1349.94 424.89 1460.82 362.22 1518.67 350.17 1349.94"/><polygon class="cg" points="910.19 1589.37 673.97 1891.48 968.03 1584.55 910.19 1589.37"/><polygon class="ae" points="673.97 1891.48 980.49 1691.01 968.03 1584.55 673.97 1891.48"/><polygon class="ch" points="494.8 1648.83 593.62 1877.82 590.81 1623.12 494.8 1648.83"/><polygon class="ci" points="424.89 1460.82 599.65 1552.41 705.7 1742.83 424.89 1460.82"/><polygon class="cj" points="593.62 1483.72 705.7 1742.83 599.65 1552.41 593.62 1483.72"/><polygon class="an" points="718.96 1563.26 593.62 1483.72 705.7 1742.83 718.96 1563.26"/><polygon class="am" points="508.65 1756.09 494.8 1648.83 593.62 1877.82 508.65 1756.09"/><polygon class="ck" points="705.7 1742.83 593.62 1877.82 588.8 1623.52 705.7 1742.83"/><polygon class="am" points="-7.77 1582.54 100.81 1804.97 305.98 1880.23 -7.77 1582.54"/><polygon class="cl" points="-5.36 1988.69 305.98 1880.23 101.9 1803.09 -5.36 1988.69"/><polygon class="cm" points="-13.8 1989.3 336.91 1997.13 307.32 1876.86 -13.8 1989.3"/><polygon class="cn" points="1507.24 1368.43 1587.91 1380.07 1368.96 1236.65 1507.24 1368.43"/><polygon class="co" points="1587.91 1630.75 1349.28 1594.6 1336.02 1408.99 1587.91 1630.75"/><polygon class="t" points="1298.06 1341.3 1587.91 1630.75 1336.02 1408.99 1298.06 1341.3"/><polygon class="cp" points="1508.77 1367.62 1473.41 1435.11 1297.65 1341.3 1508.77 1367.62"/><polygon class="bt" points="1587.91 1630.75 1508.77 1367.62 1473.41 1435.11 1587.91 1630.75"/><polygon class="cq" points="1297.65 1341.3 1473.41 1435.11 1587.91 1630.75 1297.65 1341.3"/><polygon class="cr" points="961.61 1537.95 980.49 1691.01 1092.57 1387.7 961.61 1537.95"/><polygon class="ae" points="1092.57 1387.7 980.49 1691.01 1169.7 1532.33 1092.57 1387.7"/><polygon class="cs" points="1585.9 1630.35 1761.06 1825.59 1660.82 1575.31 1585.9 1630.35"/><polygon class="ct" points="1660.82 1575.31 1761.06 1825.59 1836.58 1732.79 1660.82 1575.31"/><polygon class="cu" points="1508.77 1367.62 1660.82 1575.31 1589.11 1378.26 1508.77 1367.62"/><polygon class="cv" points="1589.11 1378.26 1660.82 1575.31 1732.13 1554.02 1589.11 1378.26"/><polygon class="t" points="1587.51 1377.93 1718.97 1385.19 1732.13 1554.02 1587.51 1377.93"/><polygon class="ca" points="1336.02 1408.99 1349.28 1594.6 1169.7 1532.33 1336.02 1408.99"/><polygon class="cw" points="1169.7 1532.33 1191.4 1672.13 1349.28 1594.6 1169.7 1532.33"/><polygon class="ca" points="1349.28 1594.6 1648.17 1915.18 1439.67 1862.56 1349.28 1594.6"/><polygon class="bw" points="1349.28 1594.6 1761.06 1825.59 1585.9 1630.35 1349.28 1594.6"/><polygon class="cx" points="1761.06 1825.59 1648.17 1915.18 1349.28 1594.6 1761.06 1825.59"/><polygon class="cy" points="676.78 1888.66 980.49 1691.01 863.58 1866.97 676.78 1888.66"/><polygon class="cz" points="993.75 1811.53 980.49 1691.01 862.38 1865.76 993.75 1811.53"/><polygon class="da" points="980.49 1691.01 993.75 1811.53 1196.22 1668.11 980.49 1691.01"/><path class="db" d="M1196.22,1668.11s28.92,283.63,31.33,283.63-233.8-140.21-233.8-140.21Z"/><polygon class="dc" points="1196.22 1668.11 1439.67 1862.56 1349.28 1594.6 1196.22 1668.11"/><polygon class="dd" points="1439.67 1862.56 1225.95 1951.73 1191.4 1664.09 1439.67 1862.56"/><polygon class="am" points="674.67 1888.66 862.99 1866.51 571.93 1987.49 674.67 1888.66"/><polygon class="de" points="993.75 1811.53 1025.08 2022.44 1226.95 1950.13 993.75 1811.53"/><polygon class="df" points="980.49 1691.01 1195.42 1670.52 1169.7 1532.33 980.49 1691.01"/><polygon class="dg" points="1224.34 1950.13 1526.44 2031.28 1439.67 1862.56 1224.34 1950.13"/><polygon class="ca" points="1526.44 2031.28 1753.02 2069.84 1646.16 1914.78 1526.44 2031.28"/><polygon class="bw" points="1646.16 1914.78 1526.44 2031.28 1439.67 1862.56 1646.16 1914.78"/><polygon class="t" points="1732.13 1554.02 1834.17 1733.19 1660.82 1575.31 1732.13 1554.02"/><polygon class="dh" points="1833.36 1543.58 1731.58 1554.19 1834.17 1733.19 1833.36 1543.58"/><polygon class="t" points="1833.36 1543.58 1839.19 1428.88 1888 1488.54 1833.36 1543.58"/><polygon class="di" points="1833.36 1543.58 1923.35 1674.54 1888 1486.53 1833.36 1543.58"/><polygon class="t" points="1923.35 1674.54 1831.16 1737 1832.86 1542.77 1923.35 1674.54"/><polygon class="dj" points="1923.35 1804.71 1834.17 1733.19 1923.35 1674.54 1923.35 1804.71"/><polygon class="dk" points="1923.35 1804.71 1834.17 1733.19 1761.06 1825.59 1923.35 1804.71"/><polygon class="bt" points="1922.55 1568.48 1886.23 1488.38 1921.75 1252.72 1922.55 1568.48"/><polygon class="t" points="1368.96 1236.65 1509.56 1368.7 1296.11 1344.21 1368.96 1236.65"/><polygon class="dl" points="1225.91 1339.76 1169.7 1532.33 1368.96 1236.65 1225.91 1339.76"/><polygon class="dm" points="514.88 1272.81 743.07 1364.39 744.2 1493.93 514.88 1272.81"/></g></g></svg>